<?xml version="1.0" encoding="UTF-8"?>
<svg version="1.1" xmlns="http://www.w3.org/2000/svg" width="172" height="173" style="color:#0EA5A4">
	<defs>
		<!-- Use currentColor so the SVG can be themed by CSS or replaced color variable. -->
		<style>path,rect,circle,ellipse,polygon,line,polyline{fill:currentColor !important; stroke:none !important}</style>
	</defs>
<path d="M0 0 C22.6391946 -0.12032643 22.6391946 -0.12032643 32.3125 -0.14648438 C38.90502189 -0.16439613 45.4974184 -0.18555334 52.08984375 -0.22631836 C57.4066556 -0.25898857 62.72333292 -0.27686925 68.04023743 -0.28463173 C70.06555803 -0.29016147 72.09087153 -0.30095969 74.11613464 -0.31719017 C76.95974459 -0.33906616 79.8028034 -0.34196266 82.64648438 -0.34057617 C83.47799011 -0.351362 84.30949585 -0.36214783 85.16619873 -0.3732605 C95.91968173 -0.3167743 106.80919579 4.82604906 114.40625 12.3984375 C118.38476515 17.22312938 121.63213917 22.21189574 124 28 C124.44666016 29.00933594 124.44666016 29.00933594 124.90234375 30.0390625 C129.25132579 41.06182803 127.33445574 52.28022188 123 63 C122.24316856 64.33289104 121.45685936 65.6500986 120.625 66.9375 C118.67303147 69.86034982 118.67303147 69.86034982 119.5 72.875 C119.995 73.90625 120.49 74.9375 121 76 C126.42770351 87.92781619 129.40817513 98.68918008 124.97265625 111.5625 C119.82907711 124.45243326 112.53629351 134.07978565 99.50585938 139.70507812 C89.37217931 143.93720906 79.73646239 143.91645519 68.90625 143.71875 C66.93755425 143.70820057 64.96884041 143.70064796 63.00012207 143.69592285 C57.87743133 143.67510568 52.75615546 143.611436 47.63397217 143.53894043 C43.42730421 143.48667147 39.2207281 143.46502502 35.01380157 143.44481659 C26.34689424 143.40278034 17.67990605 143.34199344 9.01367188 143.22460938 C8.21175919 143.21720734 7.4098465 143.2098053 6.58363342 143.20217896 C1.11559366 143.11559366 1.11559366 143.11559366 0 142 C-0.0987517 140.31744765 -0.12798904 138.63075972 -0.12939453 136.9453125 C-0.13254669 135.86749512 -0.13569885 134.78967773 -0.13894653 133.67919922 C-0.1369223 132.50631348 -0.13489807 131.33342773 -0.1328125 130.125 C-0.13376923 128.9302002 -0.13472595 127.73540039 -0.13571167 126.50439453 C-0.13639371 123.9723302 -0.13453778 121.44026412 -0.13037109 118.90820312 C-0.12502321 115.0168874 -0.13031533 111.12568711 -0.13671875 107.234375 C-0.13605797 104.78124974 -0.13477682 102.32812456 -0.1328125 99.875 C-0.13483673 98.70211426 -0.13686096 97.52922852 -0.13894653 96.32080078 C-0.13579437 95.2429834 -0.13264221 94.16516602 -0.12939453 93.0546875 C-0.12859894 92.10062012 -0.12780334 91.14655273 -0.12698364 90.16357422 C0 88 0 88 1 87 C2.66429051 86.90176063 4.33281931 86.87026369 6 86.875 C7.36125 86.87113281 7.36125 86.87113281 8.75 86.8671875 C11 87 11 87 12 88 C12.09268999 89.35094982 12.11747326 90.70667091 12.11352539 92.06079102 C12.11344986 92.92160782 12.11337433 93.78242462 12.11329651 94.66932678 C12.10813522 95.60473801 12.10297394 96.54014923 12.09765625 97.50390625 C12.0962413 98.45692123 12.09482635 99.40993622 12.09336853 100.39183044 C12.08775152 103.44875165 12.07519616 106.50560077 12.0625 109.5625 C12.05748719 111.62955624 12.05292391 113.69661362 12.04882812 115.76367188 C12.03777656 120.84247588 12.02050055 125.9212257 12 131 C21.86707017 130.96183196 31.73376417 130.90230951 41.60053825 130.81609726 C46.18292473 130.77671679 50.76512176 130.74448232 55.34765625 130.72900391 C59.77642659 130.71377484 64.20467575 130.67921967 68.63321304 130.63169098 C70.3163002 130.61694128 71.9994618 130.60896269 73.68261337 130.60811615 C86.45999449 130.59523558 96.38558783 129.39441788 106.01953125 120.2890625 C112.4423475 112.86545239 114.3360635 104.82320781 114.30078125 95.26171875 C113.82862489 90.14158161 112.06172685 85.67570195 110 81 C106.96693142 82.15298155 104.23482226 83.38348582 101.5 85.125 C98.12922661 86.93077146 96.69433879 87.69892896 93 87 C91.63266972 86.04701223 90.29735507 85.04625409 89 84 C85.14195189 82.62071587 81.0716418 82.79314949 77.0234375 82.71875 C76.25697906 82.70034058 75.49052063 82.68193115 74.70083618 82.66296387 C71.42895124 82.58445563 68.15687002 82.51640394 64.88476562 82.44775391 C62.49338472 82.39607656 60.10218241 82.33882861 57.7109375 82.28125 C56.96822601 82.26767456 56.22551453 82.25409912 55.46029663 82.2401123 C50.22571298 82.11285649 50.22571298 82.11285649 48 81 C48 77.37 48 73.74 48 70 C52.54454533 69.09109093 56.57049036 68.90691853 61.15234375 69.015625 C62.31897301 69.04036896 62.31897301 69.04036896 63.50917053 69.06561279 C65.14900931 69.10298862 66.78877886 69.14351867 68.4284668 69.18701172 C70.92553968 69.24969974 73.42240856 69.29119729 75.91992188 69.33203125 C77.51826161 69.37109014 79.11657105 69.41141305 80.71484375 69.453125 C81.45564682 69.46265198 82.19644989 69.47217896 82.95970154 69.48199463 C87.72663373 69.63784602 90.83842001 70.76509837 95 73 C98.27885532 72.78892707 98.27885532 72.78892707 101 72 C101 71.34 101 70.68 101 70 C99.00531118 69.31760646 97.00342734 68.65629516 95 68 C94.37665771 67.75241943 93.75331543 67.50483887 93.11108398 67.24975586 C84.44857852 64.12721353 75.52529827 64.47153607 66.4375 64.375 C63.94700568 64.33847756 61.45666797 64.29797768 58.96632385 64.25234985 C57.42616566 64.22515356 55.88589128 64.20378903 54.3455658 64.18881226 C49.11077535 64.11077535 49.11077535 64.11077535 48 63 C47.92794489 61.31391034 47.91613932 59.62499341 47.9375 57.9375 C47.94652344 57.01839844 47.95554688 56.09929687 47.96484375 55.15234375 C47.97644531 54.44207031 47.98804688 53.73179688 48 53 C54.10143362 52.90059698 60.20238847 52.82827953 66.30444336 52.78027344 C68.37711811 52.76024603 70.449737 52.73301589 72.5222168 52.69824219 C75.51364996 52.649332 78.50433155 52.62694207 81.49609375 52.609375 C82.87008583 52.57840729 82.87008583 52.57840729 84.27183533 52.54681396 C90.71930404 52.54460099 95.31912733 54.02013649 101 57 C102.40958984 57.62648438 102.40958984 57.62648438 103.84765625 58.265625 C105.8984375 59.17708333 107.94921875 60.08854167 110 61 C114.76228385 51.58173327 115.67870682 42.39631863 112.5 32.25 C109.11772266 24.16553221 104.15143222 18.68700566 96.1875 15 C90.8491067 12.83151302 86.43197976 11.84195626 80.68286133 11.79467773 C79.94115189 11.78477814 79.19944244 11.77487854 78.43525696 11.76467896 C75.98421417 11.73309743 73.533152 11.70831979 71.08203125 11.68359375 C69.38237505 11.66302133 67.68272393 11.64202478 65.983078 11.62062073 C61.50985837 11.5654298 57.03659279 11.51600738 52.56329346 11.46777344 C47.19594548 11.40870391 41.82868146 11.34249231 36.46140289 11.27747345 C28.30765321 11.17950139 20.15384965 11.09061975 12 11 C12 24.86 12 38.72 12 53 C18.6 53 25.2 53 32 53 C33.62651522 56.25303044 33.11453156 59.39225602 33 63 C32.67 63.33 32.34 63.66 32 64 C21.44 64 10.88 64 0 64 C0 42.88 0 21.76 0 0 Z " fill="#209AEC" transform="translate(24,17)"/>
<path d="M0 0 C6.10143362 -0.09940302 12.20238847 -0.17172047 18.30444336 -0.21972656 C20.37711811 -0.23975397 22.449737 -0.26698411 24.5222168 -0.30175781 C27.51364996 -0.350668 30.50433155 -0.37305793 33.49609375 -0.390625 C34.87008583 -0.42159271 34.87008583 -0.42159271 36.27183533 -0.45318604 C42.71930404 -0.45539901 47.31912733 1.02013649 53 4 C54.40958984 4.62648438 54.40958984 4.62648438 55.84765625 5.265625 C57.8984375 6.17708333 59.94921875 7.08854167 62 8 C62.99 5.69 63.98 3.38 65 1 C65.33 1 65.66 1 66 1 C66 3.97 66 6.94 66 10 C63.375 11.1875 63.375 11.1875 60 12 C56.875 10.75 56.875 10.75 54 9 C53.21625 8.608125 52.4325 8.21625 51.625 7.8125 C51.08875 7.544375 50.5525 7.27625 50 7 C50 6.34 50 5.68 50 5 C40.42587688 2.67622186 31.0866795 2.76650036 21.3125 2.875 C19.72461505 2.88505504 18.1367239 2.8941764 16.54882812 2.90234375 C12.69906275 2.92414557 8.84960173 2.95853441 5 3 C4.34 4.65 3.68 6.3 3 8 C4.00264893 7.97905273 5.00529785 7.95810547 6.03833008 7.93652344 C9.80852606 7.86335066 13.57866123 7.817924 17.34936523 7.78027344 C18.97186893 7.76033187 20.59430242 7.73316826 22.21655273 7.69824219 C31.89279746 7.49534837 40.09451696 7.63401218 49 12 C49 12.66 49 13.32 49 14 C49.969375 14.144375 50.93875 14.28875 51.9375 14.4375 C55 15 55 15 56 16 C56.14115161 18.67058851 56.04247107 21.32432238 56 24 C57.11375 24.12375 58.2275 24.2475 59.375 24.375 C63 25 63 25 65 27 C65.58007536 28.6680636 66.09450582 30.35958924 66.5625 32.0625 C67.2711258 35.3121143 67.2711258 35.3121143 69 38 C69.23427778 40.01594582 69.41336124 42.038474 69.5625 44.0625 C69.64628906 45.16722656 69.73007813 46.27195313 69.81640625 47.41015625 C69.87699219 48.26480469 69.93757813 49.11945313 70 50 C72.09371218 49.60337399 72.09371218 49.60337399 74 48 C74.46588547 45.17482275 74.69615501 42.70920439 74.75 39.875 C74.79447266 38.74384766 74.79447266 38.74384766 74.83984375 37.58984375 C74.91057932 35.72714047 74.95754983 33.86356245 75 32 C74.34 32 73.68 32 73 32 C73 29.69 73 27.38 73 25 C72.34 25 71.68 25 71 25 C71.33 23.68 71.66 22.36 72 21 C78.05820773 32.28080059 81.30797902 43.38148221 77.8125 56.125 C73.59959544 68.35222069 67.11831136 78.5569339 55.5345459 84.89660645 C43.92282753 90.32319802 33.56892122 90.94990667 20.90625 90.71875 C18.93755425 90.70820057 16.96884041 90.70064796 15.00012207 90.69592285 C9.87743133 90.67510568 4.75615546 90.611436 -0.36602783 90.53894043 C-4.57269579 90.48667147 -8.7792719 90.46502502 -12.98619843 90.44481659 C-21.65310576 90.40278034 -30.32009395 90.34199344 -38.98632812 90.22460938 C-39.78824081 90.21720734 -40.5901535 90.2098053 -41.41636658 90.20217896 C-46.88440634 90.11559366 -46.88440634 90.11559366 -48 89 C-48.0987517 87.31744765 -48.12798904 85.63075972 -48.12939453 83.9453125 C-48.13254669 82.86749512 -48.13569885 81.78967773 -48.13894653 80.67919922 C-48.1369223 79.50631348 -48.13489807 78.33342773 -48.1328125 77.125 C-48.13376923 75.9302002 -48.13472595 74.73540039 -48.13571167 73.50439453 C-48.13639371 70.9723302 -48.13453778 68.44026412 -48.13037109 65.90820312 C-48.12502321 62.0168874 -48.13031533 58.12568711 -48.13671875 54.234375 C-48.13605797 51.78124974 -48.13477682 49.32812456 -48.1328125 46.875 C-48.13483673 45.70211426 -48.13686096 44.52922852 -48.13894653 43.32080078 C-48.13579437 42.2429834 -48.13264221 41.16516602 -48.12939453 40.0546875 C-48.12859894 39.10062012 -48.12780334 38.14655273 -48.12698364 37.16357422 C-48 35 -48 35 -47 34 C-45.33570949 33.90176063 -43.66718069 33.87026369 -42 33.875 C-40.63875 33.87113281 -40.63875 33.87113281 -39.25 33.8671875 C-37 34 -37 34 -36 35 C-35.90731001 36.35094982 -35.88252674 37.70667091 -35.88647461 39.06079102 C-35.88655014 39.92160782 -35.88662567 40.78242462 -35.88670349 41.66932678 C-35.89186478 42.60473801 -35.89702606 43.54014923 -35.90234375 44.50390625 C-35.9037587 45.45692123 -35.90517365 46.40993622 -35.90663147 47.39183044 C-35.91224848 50.44875165 -35.92480384 53.50560077 -35.9375 56.5625 C-35.94251281 58.62955624 -35.94707609 60.69661362 -35.95117188 62.76367188 C-35.96222344 67.84247588 -35.97949945 72.9212257 -36 78 C-26.13292983 77.96183196 -16.26623583 77.90230951 -6.39946175 77.81609726 C-1.81707527 77.77671679 2.76512176 77.74448232 7.34765625 77.72900391 C11.77642659 77.71377484 16.20467575 77.67921967 20.63321304 77.63169098 C22.3163002 77.61694128 23.9994618 77.60896269 25.68261337 77.60811615 C38.45999449 77.59523558 48.38558783 76.39441788 58.01953125 67.2890625 C64.4423475 59.86545239 66.3360635 51.82320781 66.30078125 42.26171875 C65.82862489 37.14158161 64.06172685 32.67570195 62 28 C58.96693142 29.15298155 56.23482226 30.38348582 53.5 32.125 C50.12922661 33.93077146 48.69433879 34.69892896 45 34 C43.63266972 33.04701223 42.29735507 32.04625409 41 31 C37.14195189 29.62071587 33.0716418 29.79314949 29.0234375 29.71875 C27.87374985 29.69113586 27.87374985 29.69113586 26.70083618 29.66296387 C23.42895124 29.58445563 20.15687002 29.51640394 16.88476562 29.44775391 C14.49338472 29.39607656 12.10218241 29.33882861 9.7109375 29.28125 C8.96822601 29.26767456 8.22551453 29.25409912 7.46029663 29.2401123 C2.22571298 29.11285649 2.22571298 29.11285649 0 28 C0 24.37 0 20.74 0 17 C4.54454533 16.09109093 8.57049036 15.90691853 13.15234375 16.015625 C13.93009659 16.03212097 14.70784943 16.04861694 15.50917053 16.06561279 C17.14900931 16.10298862 18.78877886 16.14351867 20.4284668 16.18701172 C22.92553968 16.24969974 25.42240856 16.29119729 27.91992188 16.33203125 C29.51826161 16.37109014 31.11657105 16.41141305 32.71484375 16.453125 C33.45564682 16.46265198 34.19644989 16.47217896 34.95970154 16.48199463 C39.72663373 16.63784602 42.83842001 17.76509837 47 20 C50.27885532 19.78892707 50.27885532 19.78892707 53 19 C53 18.34 53 17.68 53 17 C51.00531118 16.31760646 49.00342734 15.65629516 47 15 C46.37665771 14.75241943 45.75331543 14.50483887 45.11108398 14.24975586 C36.44857852 11.12721353 27.52529827 11.47153607 18.4375 11.375 C15.94700568 11.33847756 13.45666797 11.29797768 10.96632385 11.25234985 C9.42616566 11.22515356 7.88589128 11.20378903 6.3455658 11.18881226 C1.11077535 11.11077535 1.11077535 11.11077535 0 10 C-0.07205511 8.31391034 -0.08386068 6.62499341 -0.0625 4.9375 C-0.05347656 4.01839844 -0.04445312 3.09929687 -0.03515625 2.15234375 C-0.02355469 1.44207031 -0.01195312 0.73179688 0 0 Z M54 24 C54 24.66 54 25.32 54 26 C51.69 26.33 49.38 26.66 47 27 C46.67 27.99 46.34 28.98 46 30 C50.65052872 30.26932521 50.65052872 30.26932521 55 29 C55 27.35 55 25.7 55 24 C54.67 24 54.34 24 54 24 Z " fill="#1D9AEB" transform="translate(72,70)"/>
<path d="M0 0 C3.19897029 6.06516179 2.89519349 13.21552931 1.34765625 19.7578125 C-1.09760099 26.62132425 -4.87560254 31.64320145 -11.2421875 35.28125 C-17.6299243 38.29230438 -23.59554949 39.12724601 -30.64794922 39.11352539 C-31.94884491 39.11344986 -33.2497406 39.11337433 -34.59005737 39.11329651 C-35.99493448 39.10819101 -37.39981119 39.10297504 -38.8046875 39.09765625 C-40.25342764 39.09578923 -41.70216842 39.09436667 -43.15090942 39.09336853 C-46.94846363 39.08956573 -50.74597908 39.07975474 -54.54351807 39.06866455 C-58.42484005 39.05840215 -62.30616834 39.05386059 -66.1875 39.04882812 C-73.79168426 39.0381303 -81.39583668 39.02108098 -89 39 C-89.66662104 34.73680288 -90.12754716 30.62706682 -90.1328125 26.3125 C-90.13410156 25.28382813 -90.13539062 24.25515625 -90.13671875 23.1953125 C-90.13285156 22.14085938 -90.12898438 21.08640625 -90.125 20 C-90.13080078 18.41832031 -90.13080078 18.41832031 -90.13671875 16.8046875 C-90.12998234 11.42903565 -89.94760458 6.29455256 -89 1 C-85.37 1 -81.74 1 -78 1 C-78 9.58 -78 18.16 -78 27 C-70.53044196 26.93237053 -63.06184171 26.86197239 -55.59276581 26.7644577 C-52.11435656 26.71985185 -48.63606625 26.68040563 -45.1574707 26.65356445 C-41.1632744 26.62250545 -37.16970632 26.56771812 -33.17578125 26.51171875 C-31.93290848 26.50532883 -30.69003571 26.4989389 -29.40950012 26.49235535 C-28.24867416 26.47256119 -27.08784821 26.45276703 -25.8918457 26.43237305 C-24.36295464 26.41571846 -24.36295464 26.41571846 -22.80317688 26.39872742 C-18.30990293 25.75959846 -15.74203492 23.82448324 -12.75 20.5 C-9.86765971 16.38237102 -9.8888864 13.22247368 -9.9375 8.3125 C-9.94652344 7.13300781 -9.95554687 5.95351562 -9.96484375 4.73828125 C-9.97644531 3.83464844 -9.98804687 2.93101563 -10 2 C-3.375 -1.125 -3.375 -1.125 0 0 Z " fill="#77B6A8" transform="translate(131,104)"/>
<path d="M0 0 C22.79962984 -0.08021762 22.79962984 -0.08021762 32.5078125 -0.09765625 C39.1357747 -0.10961828 45.76368172 -0.12377934 52.39160156 -0.15087891 C57.73432267 -0.17258732 63.0769846 -0.18456443 68.4197464 -0.18975449 C70.45952537 -0.19345383 72.49930105 -0.20067759 74.53905487 -0.21146011 C77.39297012 -0.22594835 80.24663991 -0.22797905 83.10058594 -0.22705078 C83.94647278 -0.23424133 84.79235962 -0.24143188 85.66387939 -0.24884033 C92.7429793 -0.22387528 92.7429793 -0.22387528 96 2 C93.66537491 3.16731255 92.33735106 3.11514396 89.73852539 3.09765625 C88.84944992 3.09439331 87.96037445 3.09113037 87.0443573 3.08776855 C86.07194595 3.07942993 85.09953461 3.07109131 84.09765625 3.0625 C82.00374393 3.05392807 79.90983115 3.04546922 77.81591797 3.03710938 C76.16097321 3.02780396 76.16097321 3.02780396 74.47259521 3.01831055 C52.62709624 2.90101088 30.82938272 3.17176106 9 4 C9 5.65 9 7.3 9 9 C9.66 8.67 10.32 8.34 11 8 C13.32100598 7.88716284 15.64531349 7.84058349 17.96899414 7.82299805 C19.04502396 7.81314125 19.04502396 7.81314125 20.14279175 7.80308533 C22.52358097 7.78333262 24.90430686 7.7716815 27.28515625 7.76171875 C28.09953093 7.75764322 28.9139056 7.7535677 29.7529583 7.74936867 C34.06862002 7.72849322 38.38424986 7.71420149 42.69995117 7.70483398 C47.14289026 7.69380455 51.58532366 7.65944955 56.02808475 7.61966228 C59.45550925 7.59341349 62.8828152 7.58513455 66.31033134 7.58155251 C67.94687732 7.57670286 69.58341858 7.56513543 71.2198658 7.54651451 C79.97952188 7.45308656 87.17652769 7.6084559 95 12 C97.85756913 12.76019964 97.85756913 12.76019964 100 13 C98.5 14.1875 98.5 14.1875 96 15 C94.05816396 14.24615629 92.11684102 13.49092468 90.17976379 12.72493553 C86.85794379 11.62018035 83.57762412 11.56034013 80.11523438 11.56762695 C79.3727948 11.5574353 78.63035522 11.54724365 77.86541748 11.53674316 C75.44144925 11.5068457 73.01787763 11.49738339 70.59375 11.48828125 C68.901232 11.47141724 67.2087264 11.45326469 65.51623535 11.43388367 C61.08418654 11.38656435 56.65218799 11.35663853 52.2199707 11.33044434 C46.88997968 11.29528103 41.56018159 11.23832011 36.23034668 11.18505096 C28.1535896 11.10674907 20.07708141 11.05598359 12 11 C12 24.86 12 38.72 12 53 C18.6 53 25.2 53 32 53 C33.62651522 56.25303044 33.11453156 59.39225602 33 63 C32.67 63.33 32.34 63.66 32 64 C21.44 64 10.88 64 0 64 C0 42.88 0 21.76 0 0 Z " fill="#249BE8" transform="translate(24,17)"/>
<path d="M0 0 C0.67498032 -0.00978378 1.34996063 -0.01956757 2.0453949 -0.02964783 C4.29212465 -0.0596927 6.53879373 -0.0810259 8.78564453 -0.09985352 C9.93864233 -0.10971126 9.93864233 -0.10971126 11.11493301 -0.11976814 C15.19297697 -0.15242001 19.27099439 -0.17684238 23.34912109 -0.19628906 C26.71116871 -0.21401856 30.07236424 -0.24869242 33.43408203 -0.29882812 C37.50078018 -0.35940699 41.56669555 -0.38981804 45.63382339 -0.39946175 C47.17666849 -0.40796421 48.71949568 -0.42665224 50.26208115 -0.45620537 C60.70197085 -0.64524893 68.93441263 0.52091421 77.17379761 7.61183167 C83.31877453 14.23748342 84.99538543 21.64295346 84.87939453 30.41186523 C84.52415022 33.3694807 83.93522335 35.57465901 82.54345703 38.20874023 C78.36757958 39.60069939 76.40870927 38.03197242 72.54345703 36.20874023 C72.57826172 35.33991211 72.61306641 34.47108398 72.64892578 33.57592773 C73.08821836 24.87586141 73.08821836 24.87586141 69.54345703 17.20874023 C64.69320325 13.47000295 61.11420192 12.09861712 55.06225586 12.00341797 C53.94132034 11.98347275 52.82038483 11.96352753 51.66548157 11.94297791 C49.85130989 11.91790916 49.85130989 11.91790916 48.00048828 11.89233398 C46.76175461 11.87155289 45.52302094 11.85077179 44.24674988 11.82936096 C40.95720447 11.77502226 37.66762977 11.72478073 34.37799072 11.67651367 C31.01967889 11.62623378 27.66145657 11.57058162 24.30322266 11.51538086 C17.71670323 11.40820972 11.13011615 11.30693548 4.54345703 11.20874023 C4.54345703 17.14874023 4.54345703 23.08874023 4.54345703 29.20874023 C0.91345703 29.20874023 -2.71654297 29.20874023 -6.45654297 29.20874023 C-7.21545807 25.41416472 -7.58476905 22.51012539 -7.58935547 18.72436523 C-7.59064453 17.70729492 -7.59193359 16.69022461 -7.59326172 15.64233398 C-7.58939453 14.59174805 -7.58552734 13.54116211 -7.58154297 12.45874023 C-7.58541016 11.39268555 -7.58927734 10.32663086 -7.59326172 9.22827148 C-7.59197266 8.21635742 -7.59068359 7.20444336 -7.58935547 6.16186523 C-7.58822754 5.23535156 -7.58709961 4.30883789 -7.5859375 3.35424805 C-7.31169836 -1.19294731 -3.82883029 0.04958679 0 0 Z " fill="#82C3B5" transform="translate(48.45654296875,33.791259765625)"/>
<path d="M0 0 C6.10143362 -0.09940302 12.20238847 -0.17172047 18.30444336 -0.21972656 C20.37711811 -0.23975397 22.449737 -0.26698411 24.5222168 -0.30175781 C27.51364996 -0.350668 30.50433155 -0.37305793 33.49609375 -0.390625 C34.87008583 -0.42159271 34.87008583 -0.42159271 36.27183533 -0.45318604 C42.71930404 -0.45539901 47.31912733 1.02013649 53 4 C54.40958984 4.62648438 54.40958984 4.62648438 55.84765625 5.265625 C57.8984375 6.17708333 59.94921875 7.08854167 62 8 C62.99 5.69 63.98 3.38 65 1 C65.33 1 65.66 1 66 1 C66 3.97 66 6.94 66 10 C63.375 11.1875 63.375 11.1875 60 12 C56.875 10.75 56.875 10.75 54 9 C53.21625 8.608125 52.4325 8.21625 51.625 7.8125 C51.08875 7.544375 50.5525 7.27625 50 7 C50 6.34 50 5.68 50 5 C40.42587688 2.67622186 31.0866795 2.76650036 21.3125 2.875 C19.72461505 2.88505504 18.1367239 2.8941764 16.54882812 2.90234375 C12.69906275 2.92414557 8.84960173 2.95853441 5 3 C4.34 4.65 3.68 6.3 3 8 C4.00264893 7.97905273 5.00529785 7.95810547 6.03833008 7.93652344 C9.80852606 7.86335066 13.57866123 7.817924 17.34936523 7.78027344 C18.97186893 7.76033187 20.59430242 7.73316826 22.21655273 7.69824219 C31.89279746 7.49534837 40.09451696 7.63401218 49 12 C49 12.66 49 13.32 49 14 C49.969375 14.144375 50.93875 14.28875 51.9375 14.4375 C55 15 55 15 56 16 C56.14115161 18.67058851 56.04247107 21.32432238 56 24 C57.670625 24.185625 57.670625 24.185625 59.375 24.375 C63 25 63 25 65 27 C65.58007536 28.6680636 66.09450582 30.35958924 66.5625 32.0625 C67.2711258 35.3121143 67.2711258 35.3121143 69 38 C69.23427778 40.01594582 69.41336124 42.038474 69.5625 44.0625 C69.64628906 45.16722656 69.73007813 46.27195313 69.81640625 47.41015625 C69.87699219 48.26480469 69.93757813 49.11945313 70 50 C72.09371218 49.60337399 72.09371218 49.60337399 74 48 C74.46588547 45.17482275 74.69615501 42.70920439 74.75 39.875 C74.79447266 38.74384766 74.79447266 38.74384766 74.83984375 37.58984375 C74.91057932 35.72714047 74.95754983 33.86356245 75 32 C74.34 32 73.68 32 73 32 C73 29.69 73 27.38 73 25 C72.34 25 71.68 25 71 25 C71.33 23.68 71.66 22.36 72 21 C78.05820773 32.28080059 81.30797902 43.38148221 77.8125 56.125 C73.94208811 67.35819543 67.78824938 78.58286942 56.76171875 84.125 C50.50260417 87 50.50260417 87 48 87 C48.125 85.125 48.125 85.125 49 83 C50.99571323 82.32060826 52.99594773 81.65438441 55 81 C55.4640625 79.9790625 55.4640625 79.9790625 55.9375 78.9375 C56.4634375 77.9784375 56.4634375 77.9784375 57 77 C60.625 76.25 60.625 76.25 64 76 C64.495 74.02 64.495 74.02 65 72 C65.66 72 66.32 72 67 72 C66.896875 71.278125 66.79375 70.55625 66.6875 69.8125 C67.12449065 65.87958411 69.10082197 64.53678077 72 62 C71.67 61.01 71.34 60.02 71 59 C68.36 59.99 65.72 60.98 63 62 C63.2165625 61.34515625 63.433125 60.6903125 63.65625 60.015625 C67.20811511 48.37340047 66.92372066 39.16629507 62 28 C58.96693142 29.15298155 56.23482226 30.38348582 53.5 32.125 C50.12922661 33.93077146 48.69433879 34.69892896 45 34 C43.63266972 33.04701223 42.29735507 32.04625409 41 31 C37.14195189 29.62071587 33.0716418 29.79314949 29.0234375 29.71875 C27.87374985 29.69113586 27.87374985 29.69113586 26.70083618 29.66296387 C23.42895124 29.58445563 20.15687002 29.51640394 16.88476562 29.44775391 C14.49338472 29.39607656 12.10218241 29.33882861 9.7109375 29.28125 C8.96822601 29.26767456 8.22551453 29.25409912 7.46029663 29.2401123 C2.22571298 29.11285649 2.22571298 29.11285649 0 28 C0 24.37 0 20.74 0 17 C4.54454533 16.09109093 8.57049036 15.90691853 13.15234375 16.015625 C13.93009659 16.03212097 14.70784943 16.04861694 15.50917053 16.06561279 C17.14900931 16.10298862 18.78877886 16.14351867 20.4284668 16.18701172 C22.92553968 16.24969974 25.42240856 16.29119729 27.91992188 16.33203125 C29.51826161 16.37109014 31.11657105 16.41141305 32.71484375 16.453125 C33.45564682 16.46265198 34.19644989 16.47217896 34.95970154 16.48199463 C39.72663373 16.63784602 42.83842001 17.76509837 47 20 C50.27885532 19.78892707 50.27885532 19.78892707 53 19 C53 18.34 53 17.68 53 17 C51.00531118 16.31760646 49.00342734 15.65629516 47 15 C46.06498657 14.62862915 46.06498657 14.62862915 45.11108398 14.24975586 C36.44857852 11.12721353 27.52529827 11.47153607 18.4375 11.375 C15.94700568 11.33847756 13.45666797 11.29797768 10.96632385 11.25234985 C9.42616566 11.22515356 7.88589128 11.20378903 6.3455658 11.18881226 C1.11077535 11.11077535 1.11077535 11.11077535 0 10 C-0.07205511 8.31391034 -0.08386068 6.62499341 -0.0625 4.9375 C-0.05347656 4.01839844 -0.04445313 3.09929687 -0.03515625 2.15234375 C-0.02355469 1.44207031 -0.01195313 0.73179688 0 0 Z M54 24 C54 24.66 54 25.32 54 26 C51.69 26.33 49.38 26.66 47 27 C46.67 27.99 46.34 28.98 46 30 C50.65052872 30.26932521 50.65052872 30.26932521 55 29 C55 27.35 55 25.7 55 24 C54.67 24 54.34 24 54 24 Z " fill="#2994DC" transform="translate(72,70)"/>
<path d="M0 0 C1.23556641 0.01740234 1.23556641 0.01740234 2.49609375 0.03515625 C3.32238281 0.04417969 4.14867188 0.05320313 5 0.0625 C5.63808594 0.07410156 6.27617188 0.08570313 6.93359375 0.09765625 C7.91546848 3.04328043 8.06021508 4.94835775 8.06298828 8.01782227 C8.06614044 9.02059708 8.0692926 10.02337189 8.07254028 11.05653381 C8.07051605 12.14389328 8.06849182 13.23125275 8.06640625 14.3515625 C8.06736298 15.48101791 8.0683197 16.61047333 8.06930542 17.77415466 C8.06998711 20.17585302 8.06813362 22.57755321 8.06396484 24.97924805 C8.05869082 28.59363152 8.06387108 32.20788642 8.0703125 35.82226562 C8.07362603 48.61548169 7.8537728 61.33567416 6.93359375 74.09765625 C3.63359375 74.09765625 0.33359375 74.09765625 -3.06640625 74.09765625 C-3.08953109 64.596913 -3.10732205 55.09617937 -3.11821842 45.59541416 C-3.12344694 41.18428621 -3.13054402 36.77317745 -3.1418457 32.36206055 C-3.15267569 28.1086451 -3.15868332 23.85524816 -3.16128349 19.60181999 C-3.16313754 17.97543992 -3.16675777 16.34906091 -3.17213631 14.72268867 C-3.17934823 12.45255432 -3.18039713 10.1824974 -3.17993164 7.91235352 C-3.18215225 6.61773697 -3.18437286 5.32312042 -3.18666077 3.98927307 C-3.0267063 0.14303905 -3.0267063 0.14303905 0 0 Z " fill="#82BFB2" transform="translate(62.06640625,50.90234375)"/>
<path d="M0 0 C0.9075 0.00257812 1.815 0.00515625 2.75 0.0078125 C4.11125 0.00394531 4.11125 0.00394531 5.5 0 C7.75 0.1328125 7.75 0.1328125 8.75 1.1328125 C8.84268999 2.48376232 8.86747326 3.83948341 8.86352539 5.19360352 C8.86344986 6.05442032 8.86337433 6.91523712 8.86329651 7.80213928 C8.85813522 8.73755051 8.85297394 9.67296173 8.84765625 10.63671875 C8.8462413 11.58973373 8.84482635 12.54274872 8.84336853 13.52464294 C8.83775152 16.58156415 8.82519616 19.63841327 8.8125 22.6953125 C8.80748719 24.76236874 8.80292391 26.82942612 8.79882812 28.89648438 C8.78777656 33.97528838 8.77050055 39.0540382 8.75 44.1328125 C18.61707017 44.09464446 28.48376417 44.03512201 38.35053825 43.94890976 C42.93292473 43.90952929 47.51512176 43.87729482 52.09765625 43.86181641 C56.52642659 43.84658734 60.95467575 43.81203217 65.38321304 43.76450348 C67.0663002 43.74975378 68.7494618 43.74177519 70.43261337 43.74092865 C81.75932449 43.72951047 92.07513317 43.39399664 100.6875 35.0703125 C101.39777344 34.39871094 102.10804688 33.72710937 102.83984375 33.03515625 C103.47019531 32.40738281 104.10054688 31.77960938 104.75 31.1328125 C105.32878906 30.55660156 105.90757812 29.98039062 106.50390625 29.38671875 C107.12072266 28.76603516 107.12072266 28.76603516 107.75 28.1328125 C105.83277831 35.94917787 105.83277831 35.94917787 102.75 38.1328125 C102.09 38.1328125 101.43 38.1328125 100.75 38.1328125 C100.75 39.1228125 100.75 40.1128125 100.75 41.1328125 C97.3480513 43.22631939 94.69727588 43.31223413 90.75 43.1328125 C90.75 43.7928125 90.75 44.4528125 90.75 45.1328125 C86.06085029 47.89541697 82.24744345 48.55474499 76.90869141 48.47338867 C75.76620941 48.47404579 75.76620941 48.47404579 74.60064697 48.47471619 C72.10068498 48.47263784 69.60140631 48.4493527 67.1015625 48.42578125 C65.36136237 48.42018188 63.62115749 48.41591339 61.88095093 48.41291809 C57.31389169 48.40149612 52.74712135 48.37205189 48.18017578 48.33880615 C43.51468818 48.30804804 38.84915364 48.29440051 34.18359375 48.27929688 C25.03893598 48.24717952 15.89449207 48.19601535 6.75 48.1328125 C6.41004735 45.46688364 6.07732751 42.80036622 5.74853516 40.13305664 C5.65294815 39.38930031 5.55736115 38.64554398 5.45887756 37.87924957 C4.54595753 30.38666265 4.73339553 23.10869858 5.125 15.5703125 C5.18171875 14.26384766 5.2384375 12.95738281 5.296875 11.61132812 C5.43578809 8.45105522 5.5868707 5.29191141 5.75 2.1328125 C3.44 2.1328125 1.13 2.1328125 -1.25 2.1328125 C-1.25 19.6228125 -1.25 37.1128125 -1.25 55.1328125 C27.79 55.1328125 56.83 55.1328125 86.75 55.1328125 C86.75 55.4628125 86.75 55.7928125 86.75 56.1328125 C75.16311598 56.15593478 63.57623741 56.173727 51.98933506 56.18462467 C46.60966238 56.18985375 41.23000542 56.19695185 35.8503418 56.20825195 C30.66325157 56.21907995 25.47617651 56.22508915 20.28907585 56.22768974 C18.3054372 56.22954415 16.32179942 56.23316506 14.33816719 56.23854256 C11.56990864 56.24575182 8.80171362 56.24680349 6.03344727 56.24633789 C5.20482681 56.24993317 4.37620636 56.25352844 3.5224762 56.25723267 C-2.13594784 56.24686466 -2.13594784 56.24686466 -3.25 55.1328125 C-3.3487517 53.45026015 -3.37798904 51.76357222 -3.37939453 50.078125 C-3.38254669 49.00030762 -3.38569885 47.92249023 -3.38894653 46.81201172 C-3.3869223 45.63912598 -3.38489807 44.46624023 -3.3828125 43.2578125 C-3.38376923 42.0630127 -3.38472595 40.86821289 -3.38571167 39.63720703 C-3.38639371 37.1051427 -3.38453778 34.57307662 -3.38037109 32.04101562 C-3.37502321 28.1496999 -3.38031533 24.25849961 -3.38671875 20.3671875 C-3.38605797 17.91406224 -3.38477682 15.46093706 -3.3828125 13.0078125 C-3.38483673 11.83492676 -3.38686096 10.66204102 -3.38894653 9.45361328 C-3.38579437 8.3757959 -3.38264221 7.29797852 -3.37939453 6.1875 C-3.37859894 5.23343262 -3.37780334 4.27936523 -3.37698364 3.29638672 C-3.20206171 0.31602983 -2.98247831 0.17604907 0 0 Z " fill="#2F98D8" transform="translate(27.25,103.8671875)"/>
<path d="M0 0 C0.67498032 -0.00978378 1.34996063 -0.01956757 2.0453949 -0.02964783 C4.29212465 -0.0596927 6.53879373 -0.0810259 8.78564453 -0.09985352 C9.93864233 -0.10971126 9.93864233 -0.10971126 11.11493301 -0.11976814 C15.19297697 -0.15242001 19.27099439 -0.17684238 23.34912109 -0.19628906 C26.71116871 -0.21401856 30.07236424 -0.24869242 33.43408203 -0.29882812 C37.50078018 -0.35940699 41.56669555 -0.38981804 45.63382339 -0.39946175 C47.17666849 -0.40796421 48.71949568 -0.42665224 50.26208115 -0.45620537 C60.70197085 -0.64524893 68.93441263 0.52091421 77.17379761 7.61183167 C83.31877453 14.23748342 84.99538543 21.64295346 84.87939453 30.41186523 C84.52415022 33.3694807 83.93522335 35.57465901 82.54345703 38.20874023 C78.36757958 39.60069939 76.40870927 38.03197242 72.54345703 36.20874023 C72.57826172 35.33991211 72.61306641 34.47108398 72.64892578 33.57592773 C73.08821836 24.87586141 73.08821836 24.87586141 69.54345703 17.20874023 C64.69320325 13.47000295 61.11420192 12.09861712 55.06225586 12.00341797 C53.94132034 11.98347275 52.82038483 11.96352753 51.66548157 11.94297791 C49.85130989 11.91790916 49.85130989 11.91790916 48.00048828 11.89233398 C46.76175461 11.87155289 45.52302094 11.85077179 44.24674988 11.82936096 C40.95720447 11.77502226 37.66762977 11.72478073 34.37799072 11.67651367 C31.01967889 11.62623378 27.66145657 11.57058162 24.30322266 11.51538086 C17.71670323 11.40820972 11.13011615 11.30693548 4.54345703 11.20874023 C4.54345703 17.14874023 4.54345703 23.08874023 4.54345703 29.20874023 C0.91345703 29.20874023 -2.71654297 29.20874023 -6.45654297 29.20874023 C-7.23953905 25.29375983 -7.56619456 22.30982242 -7.51904297 18.39624023 C-7.51001953 17.42041992 -7.50099609 16.44459961 -7.49169922 15.43920898 C-7.48009766 14.7031543 -7.46849609 13.96709961 -7.45654297 13.20874023 C-7.12654297 13.20874023 -6.79654297 13.20874023 -6.45654297 13.20874023 C-6.12654297 18.15874023 -5.79654297 23.10874023 -5.45654297 28.20874023 C-1.49654297 27.71374023 -1.49654297 27.71374023 2.54345703 27.20874023 C2.87345703 21.59874023 3.20345703 15.98874023 3.54345703 10.20874023 C23.01345703 10.20874023 42.48345703 10.20874023 62.54345703 10.20874023 C63.20345703 7.56874023 63.86345703 4.92874023 64.54345703 2.20874023 C41.44345703 1.87874023 18.34345703 1.54874023 -5.45654297 1.20874023 C-5.45654297 4.50874023 -5.45654297 7.80874023 -5.45654297 11.20874023 C-5.78654297 11.20874023 -6.11654297 11.20874023 -6.45654297 11.20874023 C-6.65060774 9.56366806 -6.83662232 7.91764429 -7.01904297 6.27124023 C-7.12345703 5.3547168 -7.22787109 4.43819336 -7.33544922 3.49389648 C-7.37541016 2.73979492 -7.41537109 1.98569336 -7.45654297 1.20874023 C-5.59453366 -0.65326907 -2.48904996 0.03223543 0 0 Z " fill="#7CB8AB" transform="translate(48.45654296875,33.791259765625)"/>
<path d="M0 0 C2.36795934 -0.01760799 4.73587803 -0.04196856 7.10369873 -0.07305908 C10.45840446 -0.11483693 13.81227281 -0.13057954 17.16720581 -0.13967896 C18.18455307 -0.15714172 19.20190033 -0.17460449 20.25007629 -0.19259644 C21.65320824 -0.18827606 21.65320824 -0.18827606 23.08468628 -0.18386841 C23.9022641 -0.18973465 24.71984192 -0.19560089 25.56219482 -0.2016449 C28.44281635 0.46334916 29.06133742 1.89228844 30.67501831 4.28610229 C33.26000343 5.55457914 33.26000343 5.55457914 35.67501831 6.28610229 C35.67501831 6.94610229 35.67501831 7.60610229 35.67501831 8.28610229 C37.32501831 8.28610229 38.97501831 8.28610229 40.67501831 8.28610229 C40.34501831 9.60610229 40.01501831 10.92610229 39.67501831 12.28610229 C38.68501831 12.28610229 37.69501831 12.28610229 36.67501831 12.28610229 C36.34501831 12.61610229 36.01501831 12.94610229 35.67501831 13.28610229 C35.01501831 13.61610229 34.35501831 13.94610229 33.67501831 14.28610229 C30.64205404 13.11005492 27.73663162 11.92315829 24.94480896 10.24783325 C17.15916255 5.96132928 8.56007083 6.78476923 -0.04763794 6.89547729 C-1.76112708 6.90294897 -3.47462483 6.90863752 -5.18812561 6.91262817 C-9.67140807 6.92781172 -14.15416211 6.96702947 -18.63723755 7.01144409 C-23.2225327 7.05255504 -27.80791425 7.0706728 -32.39334106 7.09078979 C-41.37078521 7.13353184 -50.3478393 7.20169351 -59.32498169 7.28610229 C-59.65498169 5.63610229 -59.98498169 3.98610229 -60.32498169 2.28610229 C-55.04889311 0.5274061 -49.41455176 0.87930472 -43.88748169 0.72360229 C-42.85092438 0.69382797 -42.85092438 0.69382797 -41.79342651 0.66345215 C-27.86581856 0.27876916 -13.93237383 0.08876102 0 0 Z " fill="#1D9AEC" transform="translate(92.32498168945313,18.713897705078125)"/>
<path d="M0 0 C22.79962984 -0.08021762 22.79962984 -0.08021762 32.5078125 -0.09765625 C39.1357747 -0.10961828 45.76368172 -0.12377934 52.39160156 -0.15087891 C57.73432267 -0.17258732 63.0769846 -0.18456443 68.4197464 -0.18975449 C70.45952537 -0.19345383 72.49930105 -0.20067759 74.53905487 -0.21146011 C77.39297012 -0.22594835 80.24663991 -0.22797905 83.10058594 -0.22705078 C83.94647278 -0.23424133 84.79235962 -0.24143188 85.66387939 -0.24884033 C92.7429793 -0.22387528 92.7429793 -0.22387528 96 2 C92.85969969 3.00938224 91.14280293 2.80650588 88 2 C85.20976391 1.88214704 82.44236767 1.81501688 79.65136719 1.79467773 C78.81197601 1.78477814 77.97258484 1.77487854 77.10775757 1.76467896 C74.33749192 1.73313002 71.56720914 1.70833265 68.796875 1.68359375 C66.87444619 1.66301852 64.95202184 1.6420219 63.02960205 1.62062073 C57.97277445 1.56545884 52.91590643 1.51602361 47.85900879 1.46777344 C41.78997378 1.40867725 35.72101258 1.34248165 29.65203857 1.27747345 C20.4347375 1.17953795 11.21738883 1.09063123 2 1 C2 21.13 2 41.26 2 62 C11.24 61.67 20.48 61.34 30 61 C30 59.02 30 57.04 30 55 C23.73 54.67 17.46 54.34 11 54 C11 39.48 11 24.96 11 10 C36.41 10 61.82 10 88 10 C88 10.33 88 10.66 88 11 C62.92 11 37.84 11 12 11 C12 24.86 12 38.72 12 53 C18.6 53 25.2 53 32 53 C33.62651522 56.25303044 33.11453156 59.39225602 33 63 C32.67 63.33 32.34 63.66 32 64 C21.44 64 10.88 64 0 64 C0 42.88 0 21.76 0 0 Z " fill="#3177A4" transform="translate(24,17)"/>
<path d="M0 0 C2.06111655 -0.00972913 4.12124547 -0.04076418 6.18212891 -0.07226562 C7.47505859 -0.07742187 8.76798828 -0.08257812 10.10009766 -0.08789062 C11.29183594 -0.09723633 12.48357422 -0.10658203 13.71142578 -0.11621094 C14.654375 0.00141602 15.59732422 0.11904297 16.56884766 0.24023438 C19.28117705 4.30872846 18.87584652 6.40500222 18.56884766 11.24023438 C16.56884766 13.24023438 16.56884766 13.24023438 13.60375977 13.4831543 C12.36376221 13.47904541 11.12376465 13.47493652 9.84619141 13.47070312 C9.18551163 13.4702449 8.52483185 13.46978668 7.84413147 13.46931458 C6.44790856 13.46629359 5.05168898 13.45841179 3.65551758 13.44604492 C1.51127267 13.42777634 -0.63254083 13.42553531 -2.77685547 13.42578125 C-13.28372023 13.38766649 -13.28372023 13.38766649 -14.43115234 12.24023438 C-14.50341736 10.38735936 -14.51496454 8.5318956 -14.49365234 6.67773438 C-14.48462891 5.66582031 -14.47560547 4.65390625 -14.46630859 3.61132812 C-14.45470703 2.82886719 -14.44310547 2.04640625 -14.43115234 1.24023438 C-10.1964206 -0.8771315 -4.65843845 0.01335115 0 0 Z " fill="#269AE5" transform="translate(38.43115234375,85.759765625)"/>
<path d="M0 0 C0.99 0.99 1.98 1.98 3 3 C1.75023244 6.65316671 1.32901247 7.78065836 -2 10 C-2.72965366 12.56282742 -2.72965366 12.56282742 -3 15 C-3.66 15 -4.32 15 -5 15 C-5.33 16.32 -5.66 17.64 -6 19 C-8.31 19.33 -10.62 19.66 -13 20 C-13.4640625 21.2065625 -13.4640625 21.2065625 -13.9375 22.4375 C-15 25 -15 25 -16 26 C-17.66617115 26.04063832 -19.33388095 26.042721 -21 26 C-21.495 28.475 -21.495 28.475 -22 31 C-25.69851313 32.23283771 -29.10931103 32.13161347 -32.9597168 32.11352539 C-34.17469345 32.11374443 -34.17469345 32.11374443 -35.41421509 32.1139679 C-38.09257685 32.113271 -40.77086913 32.10548903 -43.44921875 32.09765625 C-45.30581118 32.09579128 -47.1624041 32.09436775 -49.01899719 32.09336853 C-53.90655881 32.0895496 -58.79409074 32.07972461 -63.68164062 32.06866455 C-68.66861571 32.05843704 -73.65559558 32.05386803 -78.64257812 32.04882812 C-88.42839847 32.03810181 -98.21419676 32.02103284 -108 32 C-108 31.34 -108 30.68 -108 30 C-107.02360565 29.99191315 -106.0472113 29.98382629 -105.04122925 29.97549438 C-95.83067717 29.89794271 -86.62027116 29.81018066 -77.4099102 29.71247292 C-72.67499587 29.66256956 -67.9401032 29.61623899 -63.20507812 29.578125 C-58.63381889 29.5411969 -54.06274356 29.49481653 -49.491642 29.44193649 C-47.74941363 29.42343251 -46.0071459 29.40830985 -44.26485825 29.39665604 C-41.8207499 29.37972504 -39.37705908 29.35067392 -36.93310547 29.31884766 C-36.21596878 29.31668747 -35.49883209 29.31452728 -34.75996399 29.31230164 C-30.49178515 29.24149906 -26.93169045 28.69277026 -23 27 C-22.67 26.34 -22.34 25.68 -22 25 C-21.34 25 -20.68 25 -20 25 C-20 24.01 -20 23.02 -20 22 C-21.32 22 -22.64 22 -24 22 C-24 21.34 -24 20.68 -24 20 C-20.7 19.34 -17.4 18.68 -14 18 C-14 17.01 -14 16.02 -14 15 C-12.8553125 14.13375 -12.8553125 14.13375 -11.6875 13.25 C-8.7220153 11.12005364 -8.7220153 11.12005364 -7.5 7.375 C-6 4 -6 4 -3.375 2.6875 C-2.59125 2.460625 -1.8075 2.23375 -1 2 C-0.67 1.34 -0.34 0.68 0 0 Z " fill="#2B95DE" transform="translate(142,127)"/>
<path d="M0 0 C0 0.66 0 1.32 0 2 C0.88042969 1.98839844 1.76085937 1.97679688 2.66796875 1.96484375 C4.41013672 1.95130859 4.41013672 1.95130859 6.1875 1.9375 C7.33605469 1.92589844 8.48460937 1.91429688 9.66796875 1.90234375 C12.61773993 1.9887966 15.16962411 2.17960119 18 3 C19.3125 5.0625 19.3125 5.0625 20 7 C19.34 7.99 18.68 8.98 18 10 C14.88962303 10.27892331 11.98106529 10.37159309 8.87109375 10.328125 C7.96625748 10.32625183 7.0614212 10.32437866 6.12916565 10.32244873 C4.21506062 10.31572059 2.30096952 10.30179103 0.38696289 10.28125 C-2.55400259 10.25009003 -5.49443269 10.24028036 -8.43554688 10.234375 C-10.29167325 10.22520563 -12.14779414 10.21483007 -14.00390625 10.203125 C-15.33199059 10.19675018 -15.33199059 10.19675018 -16.68690491 10.19024658 C-22.88285474 10.11714526 -22.88285474 10.11714526 -24 9 C-24.14115161 6.32941149 -24.04247107 3.67567762 -24 1 C-21.50018262 0.8301095 -19.00020399 0.66402047 -16.5 0.5 C-15.80390625 0.45230469 -15.1078125 0.40460938 -14.390625 0.35546875 C-9.58304475 0.04386633 -4.81771254 -0.04340282 0 0 Z " fill="#1F98EB" transform="translate(98,87)"/>
<path d="M0 0 C9.33611351 1.80053618 16.92463587 8.03710444 22.38671875 15.5234375 C24.59816601 18.91825001 26.46607533 22.25040636 28 26 C28.29777344 26.67289063 28.59554687 27.34578125 28.90234375 28.0390625 C33.26024671 39.08443867 31.30431045 50.25376547 27 61 C26.28757499 62.37430636 25.54351409 63.73336391 24.75 65.0625 C22.65879655 68.00285606 22.65879655 68.00285606 23 72 C21.515 71.505 21.515 71.505 20 71 C20 68.36 20 65.72 20 63 C21.32 63 22.64 63 24 63 C24.04898438 62.36191406 24.09796875 61.72382812 24.1484375 61.06640625 C24.22320312 60.24011719 24.29796875 59.41382813 24.375 58.5625 C24.44460937 57.73878906 24.51421875 56.91507813 24.5859375 56.06640625 C24.72257812 55.38449219 24.85921875 54.70257813 25 54 C25.99 53.505 25.99 53.505 27 53 C27.33 45.74 27.66 38.48 28 31 C27.34 31 26.68 31 26 31 C25.73445313 30.21753906 25.46890625 29.43507813 25.1953125 28.62890625 C24.84210938 27.61699219 24.48890625 26.60507812 24.125 25.5625 C23.77695313 24.55316406 23.42890625 23.54382813 23.0703125 22.50390625 C22.25944907 19.86028249 22.25944907 19.86028249 20 19 C19.375 16.4375 19.375 16.4375 19 14 C17.02 14.66 15.04 15.32 13 16 C14.87702327 20.89562693 14.87702327 20.89562693 18 25 C18 26.32 18 27.64 18 29 C18.66 29 19.32 29 20 29 C21.13127933 31.26255865 21.12890585 32.51787909 21.1328125 35.02734375 C21.13474609 36.21553711 21.13474609 36.21553711 21.13671875 37.42773438 C21.13285156 38.25595703 21.12898438 39.08417969 21.125 39.9375 C21.13080078 41.1740332 21.13080078 41.1740332 21.13671875 42.43554688 C21.13542969 43.22896484 21.13414062 44.02238281 21.1328125 44.83984375 C21.13168457 45.56550537 21.13055664 46.29116699 21.12939453 47.03881836 C21 49 21 49 20 52 C19.34 52 18.68 52 18 52 C18.06960937 50.45892578 18.06960937 50.45892578 18.140625 48.88671875 C18.49990217 37.64161545 17.63205589 28.87084108 10 20 C7.50957162 17.35391984 4.95647452 15.11176751 2 13 C3.65 13 5.3 13 7 13 C7.33 12.01 7.66 11.02 8 10 C8.99 10.66 9.98 11.32 11 12 C11.66 10.68 12.32 9.36 13 8 C11.35 8 9.7 8 8 8 C8 7.34 8 6.68 8 6 C7.05125 5.7525 6.1025 5.505 5.125 5.25 C2 4 2 4 0.625 1.875 C0.41875 1.25625 0.2125 0.6375 0 0 Z " fill="#2698E1" transform="translate(120,19)"/>
<path d="M0 0 C0.9075 0.00257812 1.815 0.00515625 2.75 0.0078125 C4.11125 0.00394531 4.11125 0.00394531 5.5 0 C7.75 0.1328125 7.75 0.1328125 8.75 1.1328125 C8.84268999 2.48376232 8.86747326 3.83948341 8.86352539 5.19360352 C8.86340454 6.06650024 8.86328369 6.93939697 8.86315918 7.83874512 C8.85548523 9.22374207 8.85548523 9.22374207 8.84765625 10.63671875 C8.84664917 11.4810144 8.84564209 12.32531006 8.84460449 13.19519043 C8.8393557 16.36191152 8.82539456 19.52861331 8.8125 22.6953125 C8.791875 29.7696875 8.77125 36.8440625 8.75 44.1328125 C34.16 44.1328125 59.57 44.1328125 85.75 44.1328125 C85.75 44.4628125 85.75 44.7928125 85.75 45.1328125 C60.01 45.1328125 34.27 45.1328125 7.75 45.1328125 C7.3125 25.2578125 7.3125 25.2578125 7.18188477 18.98486328 C7.14376891 17.34927503 7.10530039 15.71369493 7.06640625 14.078125 C7.04993042 13.22468506 7.03345459 12.37124512 7.01647949 11.49194336 C7.03112765 7.17531564 7.03112765 7.17531564 5.75 3.1328125 C3.44 2.8028125 1.13 2.4728125 -1.25 2.1328125 C-1.25 19.6228125 -1.25 37.1128125 -1.25 55.1328125 C27.79 55.1328125 56.83 55.1328125 86.75 55.1328125 C86.75 55.4628125 86.75 55.7928125 86.75 56.1328125 C75.16311598 56.15593478 63.57623741 56.173727 51.98933506 56.18462467 C46.60966238 56.18985375 41.23000542 56.19695185 35.8503418 56.20825195 C30.66325157 56.21907995 25.47617651 56.22508915 20.28907585 56.22768974 C18.3054372 56.22954415 16.32179942 56.23316506 14.33816719 56.23854256 C11.56990864 56.24575182 8.80171362 56.24680349 6.03344727 56.24633789 C5.20482681 56.24993317 4.37620636 56.25352844 3.5224762 56.25723267 C-2.13594784 56.24686466 -2.13594784 56.24686466 -3.25 55.1328125 C-3.3487517 53.45026015 -3.37798904 51.76357222 -3.37939453 50.078125 C-3.38254669 49.00030762 -3.38569885 47.92249023 -3.38894653 46.81201172 C-3.3869223 45.63912598 -3.38489807 44.46624023 -3.3828125 43.2578125 C-3.38376923 42.0630127 -3.38472595 40.86821289 -3.38571167 39.63720703 C-3.38639371 37.1051427 -3.38453778 34.57307662 -3.38037109 32.04101562 C-3.37502321 28.1496999 -3.38031533 24.25849961 -3.38671875 20.3671875 C-3.38605797 17.91406224 -3.38477682 15.46093706 -3.3828125 13.0078125 C-3.38483673 11.83492676 -3.38686096 10.66204102 -3.38894653 9.45361328 C-3.38579437 8.3757959 -3.38264221 7.29797852 -3.37939453 6.1875 C-3.37859894 5.23343262 -3.37780334 4.27936523 -3.37698364 3.29638672 C-3.20206171 0.31602983 -2.98247831 0.17604907 0 0 Z " fill="#1B577E" transform="translate(27.25,103.8671875)"/>
<path d="M0 0 C6.10143362 -0.09940302 12.20238847 -0.17172047 18.30444336 -0.21972656 C20.37711811 -0.23975397 22.449737 -0.26698411 24.5222168 -0.30175781 C27.51364996 -0.350668 30.50433155 -0.37305793 33.49609375 -0.390625 C34.87008583 -0.42159271 34.87008583 -0.42159271 36.27183533 -0.45318604 C42.71930404 -0.45539901 47.31912733 1.02013649 53 4 C54.40958984 4.62648438 54.40958984 4.62648438 55.84765625 5.265625 C57.8984375 6.17708333 59.94921875 7.08854167 62 8 C62.99 5.69 63.98 3.38 65 1 C65.33 1 65.66 1 66 1 C66 3.97 66 6.94 66 10 C63.375 11.1875 63.375 11.1875 60 12 C56.875 10.75 56.875 10.75 54 9 C53.21625 8.608125 52.4325 8.21625 51.625 7.8125 C51.08875 7.544375 50.5525 7.27625 50 7 C50 6.34 50 5.68 50 5 C40.42587688 2.67622186 31.0866795 2.76650036 21.3125 2.875 C19.72461505 2.88505504 18.1367239 2.8941764 16.54882812 2.90234375 C12.69906275 2.92414557 8.84960173 2.95853441 5 3 C4.34 4.65 3.68 6.3 3 8 C4.02359619 7.98428955 5.04719238 7.9685791 6.10180664 7.95239258 C9.92415399 7.89781316 13.74646734 7.86354881 17.5690918 7.83520508 C19.21889044 7.82018194 20.86864958 7.7997574 22.51831055 7.77368164 C24.89902536 7.73701101 27.27920908 7.72020897 29.66015625 7.70703125 C30.38960953 7.69154739 31.11906281 7.67606354 31.87062073 7.66011047 C36.95767009 7.65846424 40.44100786 8.73227413 45 11 C42.69585497 12.15207251 41.48960002 12.09632197 38.93334961 12.03759766 C37.67711037 12.01229477 37.67711037 12.01229477 36.39549255 11.98648071 C35.49025345 11.9625827 34.58501434 11.93868469 33.65234375 11.9140625 C32.26179527 11.88220352 32.26179527 11.88220352 30.84315491 11.84970093 C28.88194668 11.80340576 26.92079919 11.75447484 24.9597168 11.703125 C21.94658132 11.62523475 18.93333985 11.55812985 15.91992188 11.4921875 C14.01821332 11.44595989 12.11651986 11.39910621 10.21484375 11.3515625 C9.30758041 11.33171295 8.40031708 11.3118634 7.46556091 11.29141235 C1.1150333 11.1150333 1.1150333 11.1150333 0 10 C-0.07205511 8.31391034 -0.08386068 6.62499341 -0.0625 4.9375 C-0.05347656 4.01839844 -0.04445313 3.09929687 -0.03515625 2.15234375 C-0.02355469 1.44207031 -0.01195313 0.73179688 0 0 Z " fill="#348DC6" transform="translate(72,70)"/>
<path d="M0 0 C0.6781929 -0.00817749 1.3563858 -0.01635498 2.05513 -0.02478027 C4.31148389 -0.04969408 6.5677742 -0.06617326 8.82421875 -0.08056641 C9.980961 -0.08855192 9.980961 -0.08855192 11.16107178 -0.09669876 C15.24978645 -0.1234676 19.33847032 -0.14282273 23.42724609 -0.15722656 C27.63606053 -0.17380346 31.84408102 -0.21851034 36.05259705 -0.26959801 C39.29901944 -0.30340554 42.5452575 -0.31481916 45.7918396 -0.32045364 C47.34188846 -0.32713854 48.89192639 -0.34228826 50.44180298 -0.36634445 C59.17147252 -0.49401091 66.33743672 -0.3451629 73.51171875 5.19287109 C73.16109375 5.91474609 72.81046875 6.63662109 72.44921875 7.38037109 C71.40158155 10.52328271 71.72439124 12.04356106 72.51171875 15.19287109 C72.18171875 15.52287109 71.85171875 15.85287109 71.51171875 16.19287109 C72.50171875 17.18287109 72.50171875 17.18287109 73.51171875 18.19287109 C72.85171875 18.85287109 72.19171875 19.51287109 71.51171875 20.19287109 C70.99609375 19.42974609 70.48046875 18.66662109 69.94921875 17.88037109 C66.37105697 13.93521837 62.9361184 12.4504982 57.72171021 11.89639282 C54.33799393 11.75019684 50.96495019 11.69935684 47.578125 11.68115234 C45.72851418 11.65422554 45.72851418 11.65422554 43.84153748 11.62675476 C39.91913225 11.57275154 35.99684805 11.53878689 32.07421875 11.50537109 C29.40815738 11.47381433 26.7421819 11.43769906 24.07617188 11.40185547 C17.55477493 11.31703022 11.03341328 11.25017058 4.51171875 11.19287109 C4.51171875 17.13287109 4.51171875 23.07287109 4.51171875 29.19287109 C0.88171875 29.19287109 -2.74828125 29.19287109 -6.48828125 29.19287109 C-7.27127733 25.27789069 -7.59793284 22.29395328 -7.55078125 18.38037109 C-7.54175781 17.40455078 -7.53273437 16.42873047 -7.5234375 15.42333984 C-7.51183594 14.68728516 -7.50023437 13.95123047 -7.48828125 13.19287109 C-7.15828125 13.19287109 -6.82828125 13.19287109 -6.48828125 13.19287109 C-6.15828125 18.14287109 -5.82828125 23.09287109 -5.48828125 28.19287109 C-1.52828125 27.69787109 -1.52828125 27.69787109 2.51171875 27.19287109 C2.84171875 21.58287109 3.17171875 15.97287109 3.51171875 10.19287109 C22.98171875 10.19287109 42.45171875 10.19287109 62.51171875 10.19287109 C63.17171875 7.55287109 63.83171875 4.91287109 64.51171875 2.19287109 C41.41171875 1.86287109 18.31171875 1.53287109 -5.48828125 1.19287109 C-5.48828125 4.49287109 -5.48828125 7.79287109 -5.48828125 11.19287109 C-5.81828125 11.19287109 -6.14828125 11.19287109 -6.48828125 11.19287109 C-6.68234603 9.54779891 -6.8683606 7.90177515 -7.05078125 6.25537109 C-7.15519531 5.33884766 -7.25960937 4.42232422 -7.3671875 3.47802734 C-7.40714844 2.72392578 -7.44710937 1.96982422 -7.48828125 1.19287109 C-5.62249655 -0.67291361 -2.49170886 0.02601132 0 0 Z " fill="#5C8B85" transform="translate(48.48828125,33.80712890625)"/>
<path d="M0 0 C6.63101429 7.56437134 8.71092743 17.25155755 8.3203125 27.16015625 C6.82203101 40.4437007 0.16415045 51.2129101 -9.375 60.25 C-13.24565246 62.83043497 -18.23297977 66 -23 66 C-22.875 64.125 -22.875 64.125 -22 62 C-20.00428677 61.32060826 -18.00405227 60.65438441 -16 60 C-15.5359375 58.9790625 -15.5359375 58.9790625 -15.0625 57.9375 C-14.711875 57.298125 -14.36125 56.65875 -14 56 C-10.375 55.25 -10.375 55.25 -7 55 C-6.67 53.68 -6.34 52.36 -6 51 C-5.34 51 -4.68 51 -4 51 C-4.103125 50.278125 -4.20625 49.55625 -4.3125 48.8125 C-3.87550935 44.87958411 -1.89917803 43.53678077 1 41 C0.67 40.01 0.34 39.02 0 38 C-1.485 38.495 -1.485 38.495 -3 39 C-3.50130606 33.73628638 -2.31168629 31.0909066 1 27 C1.66 27 2.32 27 3 27 C3.33 21.72 3.66 16.44 4 11 C3.34 11 2.68 11 2 11 C2 8.69 2 6.38 2 4 C1.34 4 0.68 4 0 4 C0 2.68 0 1.36 0 0 Z " fill="#2299E4" transform="translate(143,91)"/>
<path d="M0 0 C2.06111655 -0.00972913 4.12124547 -0.04076418 6.18212891 -0.07226562 C7.47505859 -0.07742187 8.76798828 -0.08257812 10.10009766 -0.08789062 C11.29183594 -0.09723633 12.48357422 -0.10658203 13.71142578 -0.11621094 C14.654375 0.00141602 15.59732422 0.11904297 16.56884766 0.24023438 C19.28117705 4.30872846 18.87584652 6.40500222 18.56884766 11.24023438 C16.56884766 13.24023438 16.56884766 13.24023438 13.60375977 13.4831543 C12.36376221 13.47904541 11.12376465 13.47493652 9.84619141 13.47070312 C9.18551163 13.4702449 8.52483185 13.46978668 7.84413147 13.46931458 C6.44790856 13.46629359 5.05168898 13.45841179 3.65551758 13.44604492 C1.51127267 13.42777634 -0.63254083 13.42553531 -2.77685547 13.42578125 C-13.28372023 13.38766649 -13.28372023 13.38766649 -14.43115234 12.24023438 C-14.50341736 10.38735936 -14.51496454 8.5318956 -14.49365234 6.67773438 C-14.48462891 5.66582031 -14.47560547 4.65390625 -14.46630859 3.61132812 C-14.45470703 2.82886719 -14.44310547 2.04640625 -14.43115234 1.24023438 C-10.1964206 -0.8771315 -4.65843845 0.01335115 0 0 Z M-12.43115234 2.24023438 C-12.43115234 5.21023437 -12.43115234 8.18023437 -12.43115234 11.24023438 C-7.97283253 11.26914984 -3.51453665 11.28700419 0.94384766 11.30273438 C2.21486328 11.31111328 3.48587891 11.31949219 4.79541016 11.328125 C6.00712891 11.33134766 7.21884766 11.33457031 8.46728516 11.33789062 C9.58796387 11.34312744 10.70864258 11.34836426 11.86328125 11.35375977 C14.53752109 11.42644904 14.53752109 11.42644904 16.56884766 10.24023438 C16.76971208 6.52424247 16.72079135 5.46814992 14.56884766 2.24023438 C11.33978982 1.9965319 8.46851645 2.05009819 5.29541016 2.72070312 C1.95091514 3.35797796 -1.34703063 3.58052548 -4.74365234 3.80273438 C-5.99791016 3.88652344 -7.25216797 3.9703125 -8.54443359 4.05664062 C-9.49705078 4.11722656 -10.44966797 4.1778125 -11.43115234 4.24023438 C-11.76115234 3.58023438 -12.09115234 2.92023438 -12.43115234 2.24023438 Z " fill="#34789F" transform="translate(38.43115234375,85.759765625)"/>
<path d="M0 0 C5.98232408 5.81140054 10.67811051 11.30570897 14 19 C14.30164063 19.67804687 14.60328125 20.35609375 14.9140625 21.0546875 C19.2458872 32.10691312 17.30523825 43.2514491 13 54 C12.28757499 55.37430636 11.54351409 56.73336391 10.75 58.0625 C8.65879655 61.00285606 8.65879655 61.00285606 9 65 C8.01 64.67 7.02 64.34 6 64 C6 61.36 6 58.72 6 56 C7.32 56 8.64 56 10 56 C10.04898438 55.36191406 10.09796875 54.72382812 10.1484375 54.06640625 C10.22320312 53.24011719 10.29796875 52.41382813 10.375 51.5625 C10.47941406 50.32693359 10.47941406 50.32693359 10.5859375 49.06640625 C10.72257813 48.38449219 10.85921875 47.70257813 11 47 C11.99 46.505 11.99 46.505 13 46 C13.33 38.74 13.66 31.48 14 24 C13.34 24 12.68 24 12 24 C11.73445312 23.21753906 11.46890625 22.43507813 11.1953125 21.62890625 C10.84210938 20.61699219 10.48890625 19.60507812 10.125 18.5625 C9.77695313 17.55316406 9.42890625 16.54382813 9.0703125 15.50390625 C8.25944907 12.86028249 8.25944907 12.86028249 6 12 C5.375 9.4375 5.375 9.4375 5 7 C3.35 7 1.7 7 0 7 C0 4.69 0 2.38 0 0 Z " fill="#276995" transform="translate(134,26)"/>
<path d="M0 0 C9.62328388 -0.09294957 19.24641165 -0.16389097 28.87004757 -0.20724869 C33.33938974 -0.22806518 37.80842329 -0.25627326 42.27758789 -0.30175781 C46.59590727 -0.34542883 50.91393102 -0.36918171 55.2324543 -0.37950897 C56.87459525 -0.38686241 58.51672122 -0.40122155 60.15873528 -0.42292023 C68.93897563 -0.53426458 76.15984858 -0.41329639 84 4 C86.85756913 4.76019964 86.85756913 4.76019964 89 5 C87.5 6.1875 87.5 6.1875 85 7 C82.21175762 6.27101296 79.62334908 5.1843275 77 4 C77 3.34 77 2.68 77 2 C51.59 2 26.18 2 0 2 C0 1.34 0 0.68 0 0 Z " fill="#3195D7" transform="translate(35,25)"/>
<path d="M0 0 C0 0.66 0 1.32 0 2 C0.99 2.33 1.98 2.66 3 3 C-9.87 2.505 -9.87 2.505 -23 2 C-22.67 3.98 -22.34 5.96 -22 8 C-20.94941406 7.98839844 -19.89882812 7.97679688 -18.81640625 7.96484375 C-11.46073519 7.90880054 -4.29940004 7.95722857 3 9 C3 8.34 3 7.68 3 7 C6.3 6.67 9.6 6.34 13 6 C13 5.67 13 5.34 13 5 C10.36 4.67 7.72 4.34 5 4 C5 3.34 5 2.68 5 2 C14.70080863 1.83557951 14.70080863 1.83557951 18 3 C19.3125 5.0625 19.3125 5.0625 20 7 C19.34 7.99 18.68 8.98 18 10 C14.88962303 10.27892331 11.98106529 10.37159309 8.87109375 10.328125 C7.96625748 10.32625183 7.0614212 10.32437866 6.12916565 10.32244873 C4.21506062 10.31572059 2.30096952 10.30179103 0.38696289 10.28125 C-2.55400259 10.25009003 -5.49443269 10.24028036 -8.43554688 10.234375 C-10.29167325 10.22520563 -12.14779414 10.21483007 -14.00390625 10.203125 C-15.33199059 10.19675018 -15.33199059 10.19675018 -16.68690491 10.19024658 C-22.88285474 10.11714526 -22.88285474 10.11714526 -24 9 C-24.14115161 6.32941149 -24.04247107 3.67567762 -24 1 C-21.50018262 0.8301095 -19.00020399 0.66402047 -16.5 0.5 C-15.80390625 0.45230469 -15.1078125 0.40460938 -14.390625 0.35546875 C-9.58304475 0.04386633 -4.81771254 -0.04340282 0 0 Z " fill="#279AE6" transform="translate(98,87)"/>
<path d="M0 0 C1.13115234 0.07831055 1.13115234 0.07831055 2.28515625 0.15820312 C4.1487937 0.28795004 6.01194996 0.42457488 7.875 0.5625 C7.875 0.8925 7.875 1.2225 7.875 1.5625 C2.595 1.5625 -2.685 1.5625 -8.125 1.5625 C-7.795 4.2025 -7.465 6.8425 -7.125 9.5625 C11.685 10.0575 11.685 10.0575 30.875 10.5625 C30.875 11.2225 30.875 11.8825 30.875 12.5625 C32.195 12.8925 33.515 13.2225 34.875 13.5625 C34.875 14.2225 34.875 14.8825 34.875 15.5625 C36.855 15.5625 38.835 15.5625 40.875 15.5625 C40.545 16.2225 40.215 16.8825 39.875 17.5625 C35.6765641 17.91236966 34.10030013 17.16354849 30.875 14.5625 C27.01695189 13.18321587 22.9466418 13.35564949 18.8984375 13.28125 C17.74874985 13.25363586 17.74874985 13.25363586 16.57583618 13.22546387 C13.30395124 13.14695563 10.03187002 13.07890394 6.75976562 13.01025391 C4.36838472 12.95857656 1.97718241 12.90132861 -0.4140625 12.84375 C-1.15677399 12.83017456 -1.89948547 12.81659912 -2.66470337 12.8026123 C-7.89928702 12.67535649 -7.89928702 12.67535649 -10.125 11.5625 C-10.125 7.9325 -10.125 4.3025 -10.125 0.5625 C-6.91158631 -1.04420684 -3.49541032 -0.26260855 0 0 Z " fill="#2A6A93" transform="translate(82.125,86.4375)"/>
<path d="M0 0 C-0.66 0 -1.32 0 -2 0 C-2.33 0.66 -2.66 1.32 -3 2 C-9.42857143 3.28571429 -9.42857143 3.28571429 -12 2 C-12.33 2.66 -12.66 3.32 -13 4 C-13 3.34 -13 2.68 -13 2 C-29.5 2 -46 2 -63 2 C-63.33 1.34 -63.66 0.68 -64 0 C-56.09850527 -0.15383348 -48.19693346 -0.30201448 -40.29519939 -0.4429636 C-36.62618389 -0.50858858 -32.95722593 -0.57616621 -29.28833008 -0.64819336 C-25.74820418 -0.71762088 -22.20801906 -0.78193612 -18.66773415 -0.84269524 C-16.6585244 -0.87851748 -14.64941153 -0.91964503 -12.64030457 -0.96083069 C-11.41926529 -0.98092697 -10.19822601 -1.00102325 -8.94018555 -1.02172852 C-7.32469063 -1.05170677 -7.32469063 -1.05170677 -5.67655945 -1.08229065 C-3 -1 -3 -1 0 0 Z " fill="#8CC7BA" transform="translate(115,132)"/>
<path d="M0 0 C7.90160458 -0.06775484 15.80298364 -0.12280356 23.70480061 -0.15543652 C27.37386676 -0.17109805 31.04272401 -0.19234475 34.71166992 -0.22631836 C38.25188947 -0.25889514 41.79190799 -0.27684934 45.33226585 -0.28463173 C47.34147655 -0.29287924 49.35060628 -0.31630137 51.35969543 -0.33988953 C53.19125435 -0.34022942 53.19125435 -0.34022942 55.05981445 -0.34057617 C56.67530937 -0.35056892 56.67530937 -0.35056892 58.32344055 -0.36076355 C61.31593107 0.04258318 62.19849706 0.63992472 64 3 C63.34 3.33 62.68 3.66 62 4 C61.2514827 3.69720123 60.50296539 3.39440247 59.73176575 3.08242798 C56.72301375 1.89024767 54.51689605 1.72483381 51.29174805 1.68115234 C50.17096359 1.66128265 49.05017914 1.64141296 47.89543152 1.62094116 C46.0967437 1.60361435 46.0967437 1.60361435 44.26171875 1.5859375 C42.40786308 1.55688828 42.40786308 1.55688828 40.51655579 1.5272522 C37.24348033 1.47767445 33.970439 1.43637171 30.69720459 1.39910889 C27.35206543 1.35897981 24.00711627 1.30776548 20.66210938 1.2578125 C14.10817221 1.16183179 7.55417749 1.07777375 1 1 C1 6.94 1 12.88 1 19 C-2.63 19 -6.26 19 -10 19 C-10.78299608 15.0850196 -11.10965159 12.10108218 -11.0625 8.1875 C-11.05347656 7.21167969 -11.04445312 6.23585938 -11.03515625 5.23046875 C-11.02355469 4.49441406 -11.01195312 3.75835937 -11 3 C-10.67 3 -10.34 3 -10 3 C-9.67 7.95 -9.34 12.9 -9 18 C-5.04 17.505 -5.04 17.505 -1 17 C-0.67 11.39 -0.34 5.78 0 0 Z " fill="#466E69" transform="translate(52,44)"/>
<path d="M0 0 C1 2 1 2 0.36328125 3.953125 C-5.08282241 15.85761924 -11.84588912 24.94946415 -24.01171875 30.265625 C-26 31 -26 31 -28 31 C-27.875 29.125 -27.875 29.125 -27 27 C-25.00428677 26.32060826 -23.00405227 25.65438441 -21 25 C-20.5359375 23.9790625 -20.5359375 23.9790625 -20.0625 22.9375 C-19.5365625 21.9784375 -19.5365625 21.9784375 -19 21 C-15.375 20.25 -15.375 20.25 -12 20 C-11.67 18.68 -11.34 17.36 -11 16 C-10.34 16 -9.68 16 -9 16 C-9.103125 15.278125 -9.20625 14.55625 -9.3125 13.8125 C-8.87494611 9.87451498 -6.81407234 8.6800689 -4 6 C-3.28837557 4.35202764 -2.60968047 2.68834592 -2 1 C-1.34 0.67 -0.68 0.34 0 0 Z " fill="#2F88C4" transform="translate(148,126)"/>
<path d="M0 0 C0.33 0.99 0.66 1.98 1 3 C-2.80339274 9.56325535 -8.97396477 13.54261822 -16 16 C-19.625 16.3125 -19.625 16.3125 -22 16 C-21.41347656 15.73058594 -20.82695313 15.46117187 -20.22265625 15.18359375 C-18.00290721 14.00154813 -16.32160632 12.71899616 -14.4375 11.0625 C-13.85871094 10.55847656 -13.27992187 10.05445313 -12.68359375 9.53515625 C-10.97419789 8.0160175 -10.97419789 8.0160175 -9.41015625 6.30859375 C-8 5 -8 5 -6 5 C-6 4.34 -6 3.68 -6 3 C-4.02 2.01 -2.04 1.02 0 0 Z " fill="#71ABA0" transform="translate(129,126)"/>
<path d="M0 0 C2.31 0 4.62 0 7 0 C10.54362187 6.76509631 12.33645779 12.33407554 12.25 20 C12.25773438 20.68578125 12.26546875 21.3715625 12.2734375 22.078125 C12.25689813 26.41143869 11.85187829 30.06182845 10 34 C7.875 35.375 7.875 35.375 6 36 C6.2165625 35.34515625 6.433125 34.6903125 6.65625 34.015625 C10.20811511 22.37340047 9.92372066 13.16629507 5 2 C3.35 2.33 1.7 2.66 0 3 C0 2.01 0 1.02 0 0 Z " fill="#3288BF" transform="translate(129,96)"/>
<path d="M0 0 C1.99733196 3.71503745 2.27091785 6.95188899 2.25 11.125 C2.25515625 12.15882812 2.2603125 13.19265625 2.265625 14.2578125 C2 17 2 17 0 20 C0.33 16.7 0.66 13.4 1 10 C0.34 10 -0.32 10 -1 10 C-1 7.69 -1 5.38 -1 3 C-3.54251602 3.24431996 -3.54251602 3.24431996 -6 5 C-7.08008783 8.27825654 -7.57730231 11.58056494 -8 15 C-8.33 15 -8.66 15 -9 15 C-9.33 10.71 -9.66 6.42 -10 2 C-3.375 -1.125 -3.375 -1.125 0 0 Z " fill="#679691" transform="translate(131,104)"/>
<path d="M0 0 C2 2 2 2 2.22705078 5.62353516 C2.22673357 7.17874689 2.21540299 8.73398051 2.1953125 10.2890625 C2.1924826 11.10748627 2.18965271 11.92591003 2.18673706 12.76913452 C2.17552532 15.38790393 2.15041929 18.00633364 2.125 20.625 C2.11497147 22.39843257 2.1058454 24.17187049 2.09765625 25.9453125 C2.07558278 30.29700626 2.04104644 34.6484455 2 39 C1.34 39 0.68 39 0 39 C-1.06841058 30.37584331 -0.95347652 21.98139314 -0.5625 13.3125 C-0.51029297 12.02666016 -0.45808594 10.74082031 -0.40429688 9.41601562 C-0.27593636 6.27701766 -0.14104312 3.1384493 0 0 Z " fill="#329BDF" transform="translate(33,107)"/>
<path d="M0 0 C0.66 0 1.32 0 2 0 C3 3 3 3 2 6 C23.12 6 44.24 6 66 6 C66 6.33 66 6.66 66 7 C44.55 7 23.1 7 1 7 C0.67 4.69 0.34 2.38 0 0 Z " fill="#3B6D69" transform="translate(41,136)"/>
<path d="M0 0 C0.99 0 1.98 0 3 0 C5.80255323 2.9063515 6 3.78825048 6 8 C6.66 8 7.32 8 8 8 C9.13127933 10.26255865 9.12890585 11.51787909 9.1328125 14.02734375 C9.13474609 15.21553711 9.13474609 15.21553711 9.13671875 16.42773438 C9.13285156 17.25595703 9.12898437 18.08417969 9.125 18.9375 C9.12886719 19.76185547 9.13273438 20.58621094 9.13671875 21.43554688 C9.13542969 22.22896484 9.13414062 23.02238281 9.1328125 23.83984375 C9.13168457 24.56550537 9.13055664 25.29116699 9.12939453 26.03881836 C9 28 9 28 8 31 C7.34 31 6.68 31 6 31 C6.04640625 29.97261719 6.0928125 28.94523437 6.140625 27.88671875 C6.47058635 17.31260839 4.83959351 9.50478726 0 0 Z " fill="#3086BA" transform="translate(132,40)"/>
<path d="M0 0 C0.33 0 0.66 0 1 0 C1 2.97 1 5.94 1 9 C-1.625 10.1875 -1.625 10.1875 -5 11 C-8.125 9.75 -8.125 9.75 -11 8 C-11.78375 7.608125 -12.5675 7.21625 -13.375 6.8125 C-13.91125 6.544375 -14.4475 6.27625 -15 6 C-15 5.34 -15 4.68 -15 4 C-15.99 3.67 -16.98 3.34 -18 3 C-18 2.34 -18 1.68 -18 1 C-14.14974121 1.60355408 -11.13898841 2.76772603 -7.6875 4.5625 C-6.80449219 5.01753906 -5.92148438 5.47257812 -5.01171875 5.94140625 C-4.34785156 6.29074219 -3.68398437 6.64007813 -3 7 C-2.01 4.69 -1.02 2.38 0 0 Z " fill="#3185B9" transform="translate(137,71)"/>
<path d="M0 0 C0.33 0 0.66 0 1 0 C1.73219868 18.85411601 1.73219868 18.85411601 -3 27 C-4.5048201 30.91432562 -4.5048201 30.91432562 -5 35 C-5.99 34.67 -6.98 34.34 -8 34 C-8 31.36 -8 28.72 -8 26 C-6.68 26 -5.36 26 -4 26 C-3.95101562 25.36191406 -3.90203125 24.72382812 -3.8515625 24.06640625 C-3.77679688 23.24011719 -3.70203125 22.41382812 -3.625 21.5625 C-3.55539063 20.73878906 -3.48578125 19.91507813 -3.4140625 19.06640625 C-3.20910156 18.04353516 -3.20910156 18.04353516 -3 17 C-2.34 16.67 -1.68 16.34 -1 16 C-0.68758545 13.28553021 -0.48663408 10.66090639 -0.375 7.9375 C-0.33632812 7.17888672 -0.29765625 6.42027344 -0.2578125 5.63867188 C-0.16326438 3.75952805 -0.08053244 1.87979664 0 0 Z " fill="#2E84BA" transform="translate(148,56)"/>
<path d="M0 0 C1 2 1 2 0.25 4.4375 C-0.94131051 6.87968654 -1.88488303 8.3255324 -4 10 C-4.66 10 -5.32 10 -6 10 C-6 10.99 -6 11.98 -6 13 C-9.4019487 15.09350689 -12.05272412 15.17942163 -16 15 C-16 15.66 -16 16.32 -16 17 C-17.65 17 -19.3 17 -21 17 C-21 16.34 -21 15.68 -21 15 C-20.38253906 14.8040625 -19.76507813 14.608125 -19.12890625 14.40625 C-11.09648107 11.56983806 -4.76849338 7.15274006 0 0 Z " fill="#2F86B7" transform="translate(134,132)"/>
<path d="M0 0 C1.41655793 -0.0272415 2.83327045 -0.04650467 4.25 -0.0625 C5.43335938 -0.07990234 5.43335938 -0.07990234 6.640625 -0.09765625 C8.92311136 -0.00318248 10.80783691 0.3890693 13 1 C14.99788438 1.34578768 16.99759451 1.68143549 19 2 C18.67 2.99 18.34 3.98 18 5 C15.37493198 5.02690844 12.75013827 5.04679404 10.125 5.0625 C9.37863281 5.07087891 8.63226563 5.07925781 7.86328125 5.08789062 C2.2265625 5.11328125 2.2265625 5.11328125 0 4 C0 2.68 0 1.36 0 0 Z " fill="#1E99EE" transform="translate(27,90)"/>
<path d="M0 0 C0.99 0.33 1.98 0.66 3 1 C4.94716646 1.11675815 6.89793477 1.17669925 8.84838867 1.20532227 C10.0494072 1.22526749 11.25042572 1.24521271 12.48783875 1.26576233 C14.4332531 1.29083107 14.4332531 1.29083107 16.41796875 1.31640625 C17.7589023 1.33698293 19.09982946 1.35797959 20.44075012 1.37937927 C23.96701889 1.43452627 27.49334548 1.48396794 31.01971436 1.53222656 C34.61931493 1.5824955 38.21883173 1.63815339 41.81835938 1.69335938 C48.87883352 1.80085071 55.93938282 1.90231565 63 2 C63 2.33 63 2.66 63 3 C42.21 3 21.42 3 0 3 C0 2.01 0 1.02 0 0 Z " fill="#90C3BD" transform="translate(43,139)"/>
<path d="M0 0 C6.78923539 7.74486306 8.50137188 17.26322494 8.23828125 27.34375 C8.0039394 29.95608538 7.57007618 32.44160935 7 35 C6.67 35 6.34 35 6 35 C5.93941406 33.9378125 5.87882813 32.875625 5.81640625 31.78125 C5.20729762 21.36284897 5.20729762 21.36284897 4 11 C3.34 11 2.68 11 2 11 C2 8.69 2 6.38 2 4 C1.34 4 0.68 4 0 4 C0 2.68 0 1.36 0 0 Z " fill="#256B96" transform="translate(143,91)"/>
<path d="M0 0 C0 0.33 0 0.66 0 1 C-4.15626368 2.00926479 -8.04365094 2.10239579 -12.3125 2.0625 C-13.56675781 2.05347656 -14.82101563 2.04445313 -16.11328125 2.03515625 C-17.06589844 2.02355469 -18.01851562 2.01195313 -19 2 C-19 1.34 -19 0.68 -19 0 C-19.66 0 -20.32 0 -21 0 C-21 3.3 -21 6.6 -21 10 C-21.33 10 -21.66 10 -22 10 C-22 6.37 -22 2.74 -22 -1 C-15.70058083 -4.14970959 -6.55033773 -1.22272971 0 0 Z " fill="#2670A2" transform="translate(46,88)"/>
<path d="M0 0 C2.37570543 -0.0816082 4.74855841 -0.14077222 7.125 -0.1875 C7.79015625 -0.21263672 8.4553125 -0.23777344 9.140625 -0.26367188 C13.92505876 -0.33403119 16.84401372 0.75481201 21 3 C24.27885532 2.78892707 24.27885532 2.78892707 27 2 C26.01 3.485 26.01 3.485 25 5 C21.375 5.1875 21.375 5.1875 18 5 C18 4.34 18 3.68 18 3 C12.06 2.67 6.12 2.34 0 2 C0 1.34 0 0.68 0 0 Z " fill="#2B72A4" transform="translate(98,87)"/>
<path d="M0 0 C2.67927341 4.01891012 2.15601248 6.24161923 2 11 C1.01 11.495 1.01 11.495 0 12 C-0.144375 10.906875 -0.28875 9.81375 -0.4375 8.6875 C-0.88288104 5.06877013 -0.88288104 5.06877013 -2 2 C-7.28 2 -12.56 2 -18 2 C-18 1.67 -18 1.34 -18 1 C-5.72327044 -0.40880503 -5.72327044 -0.40880503 0 0 Z " fill="#246C8A" transform="translate(55,86)"/>
<path d="M0 0 C-1.65 1.65 -3.3 3.3 -5 5 C-3.68 5.33 -2.36 5.66 -1 6 C-2 7 -2 7 -4.5625 7.0625 C-5.366875 7.041875 -6.17125 7.02125 -7 7 C-7.33 8.32 -7.66 9.64 -8 11 C-10.31 11 -12.62 11 -15 11 C-14.67 10.34 -14.34 9.68 -14 9 C-12.33333333 8.66666667 -10.66666667 8.33333333 -9 8 C-8.67 7.34 -8.34 6.68 -8 6 C-7.34 6 -6.68 6 -6 6 C-6 5.01 -6 4.02 -6 3 C-7.32 3 -8.64 3 -10 3 C-10 2.34 -10 1.68 -10 1 C-8.71073008 0.63720544 -7.41846728 0.28503302 -6.125 -0.0625 C-5.40570313 -0.25972656 -4.68640625 -0.45695313 -3.9453125 -0.66015625 C-2 -1 -2 -1 0 0 Z " fill="#2799E2" transform="translate(128,146)"/>
<path d="M0 0 C3.4687858 0.67111707 6.14448089 2.03703095 9.1875 3.8125 C10.06792969 4.31394531 10.94835937 4.81539062 11.85546875 5.33203125 C14 7 14 7 14.80078125 9.19921875 C14.89939453 10.09060547 14.89939453 10.09060547 15 11 C14.34 11 13.68 11 13 11 C13 10.01 13 9.02 13 8 C11.35 8 9.7 8 8 8 C8 7.34 8 6.68 8 6 C7.05125 5.7525 6.1025 5.505 5.125 5.25 C2 4 2 4 0.625 1.875 C0.41875 1.25625 0.2125 0.6375 0 0 Z " fill="#3488C3" transform="translate(120,19)"/>
<path d="M0 0 C0 0.66 0 1.32 0 2 C0.99 2.33 1.98 2.66 3 3 C-9.87 2.505 -9.87 2.505 -23 2 C-22.67 4.31 -22.34 6.62 -22 9 C-22.66 9 -23.32 9 -24 9 C-24 6.36 -24 3.72 -24 1 C-21.50018262 0.8301095 -19.00020399 0.66402047 -16.5 0.5 C-15.80390625 0.45230469 -15.1078125 0.40460938 -14.390625 0.35546875 C-9.58304475 0.04386633 -4.81771254 -0.04340282 0 0 Z " fill="#3491D1" transform="translate(98,87)"/>
<path d="M0 0 C3.30409461 3.30409461 3.15964648 6.40729521 3.1875 10.875 C3.20167969 11.90367188 3.21585938 12.93234375 3.23046875 13.9921875 C2.99165305 17.10893481 2.48218576 19.25229351 1 22 C0.01 22.33 -0.98 22.66 -2 23 C-4.1875 21.5625 -4.1875 21.5625 -6 20 C-5.030625 19.71125 -4.06125 19.4225 -3.0625 19.125 C0.10664203 18.35785318 0.10664203 18.35785318 1 16 C1.07092842 13.7927077 1.08415025 11.58332548 1.0625 9.375 C1.05347656 8.18648437 1.04445312 6.99796875 1.03515625 5.7734375 C1.02355469 4.85820313 1.01195312 3.94296875 1 3 C0.34 2.67 -0.32 2.34 -1 2 C-0.67 1.34 -0.34 0.68 0 0 Z " fill="#5E8883" transform="translate(130,50)"/>
<path d="M0 0 C0.99 0.99 1.98 1.98 3 3 C-5.07744875 8.74031891 -5.07744875 8.74031891 -11 8 C-10.41734375 7.73445312 -9.8346875 7.46890625 -9.234375 7.1953125 C-6.93825772 5.96697004 -5.19643982 4.59685061 -3.25 2.875 C-2.63640625 2.33617187 -2.0228125 1.79734375 -1.390625 1.2421875 C-0.70226562 0.62730469 -0.70226562 0.62730469 0 0 Z " fill="#81B9B1" transform="translate(118,134)"/>
<path d="M0 0 C0.99 0 1.98 0 3 0 C5.80255323 2.9063515 6 3.78825048 6 8 C6.66 8 7.32 8 8 8 C7.67 10.31 7.34 12.62 7 15 C5.36457914 11.79029551 3.85968003 8.53192428 2.375 5.25 C1.92898437 4.26515625 1.48296875 3.2803125 1.0234375 2.265625 C0.68570313 1.51796875 0.34796875 0.7703125 0 0 Z " fill="#2978A6" transform="translate(132,40)"/>
<path d="M0 0 C2.31 0 4.62 0 7 0 C9.66590937 4.55426184 10.31563182 7.73946963 10 13 C8.33167423 10.49751135 7.37618326 8.58850813 6.375 5.8125 C6.11460937 5.09707031 5.85421875 4.38164063 5.5859375 3.64453125 C5.39257812 3.10183594 5.19921875 2.55914062 5 2 C3.35 2.33 1.7 2.66 0 3 C0 2.01 0 1.02 0 0 Z " fill="#2976A0" transform="translate(129,96)"/>
<path d="M0 0 C3.96 0.33 7.92 0.66 12 1 C12 1.66 12 2.32 12 3 C13.65 3.33 15.3 3.66 17 4 C17.33 5.32 17.66 6.64 18 8 C17.34 8 16.68 8 16 8 C16 7.34 16 6.68 16 6 C10.70843973 4.18972938 5.36095277 2.58921525 0 1 C0 0.67 0 0.34 0 0 Z " fill="#256A95" transform="translate(109,81)"/>
<path d="M0 0 C0.99 0.66 1.98 1.32 3 2 C3 2.66 3 3.32 3 4 C2.34 4 1.68 4 1 4 C1 4.99 1 5.98 1 7 C-0.8125 7.6875 -0.8125 7.6875 -3 8 C-4.75 6.5625 -4.75 6.5625 -6 5 C-5.01 5 -4.02 5 -3 5 C-2.5359375 4.0409375 -2.5359375 4.0409375 -2.0625 3.0625 C-1 1 -1 1 0 0 Z " fill="#88C7B9" transform="translate(125,44)"/>
<path d="M0 0 C0.33 0 0.66 0 1 0 C1 2.97 1 5.94 1 9 C-0.98 9.66 -2.96 10.32 -5 11 C-4.42655063 8.13275314 -4.1385485 7.1385485 -2 5 C-1.29289322 3.35008418 -0.62056011 1.68437744 0 0 Z " fill="#267EB2" transform="translate(137,71)"/>
<path d="M0 0 C0.33 0 0.66 0 1 0 C1.0269501 2.93756119 1.04681474 5.87487555 1.0625 8.8125 C1.07087891 9.64587891 1.07925781 10.47925781 1.08789062 11.33789062 C1.09111328 12.14033203 1.09433594 12.94277344 1.09765625 13.76953125 C1.10289307 14.50792236 1.10812988 15.24631348 1.11352539 16.00708008 C1 18 1 18 0 21 C-0.99 21 -1.98 21 -3 21 C-3 19.68 -3 18.36 -3 17 C-2.34 16.67 -1.68 16.34 -1 16 C-0.68758545 13.28553021 -0.48663408 10.66090639 -0.375 7.9375 C-0.33632812 7.17888672 -0.29765625 6.42027344 -0.2578125 5.63867188 C-0.16326438 3.75952805 -0.08053244 1.87979664 0 0 Z " fill="#3494CF" transform="translate(148,56)"/>
<path d="M0 0 C0.66 0 1.32 0 2 0 C3 3 3 3 2 6 C7.94 6 13.88 6 20 6 C20 6.33 20 6.66 20 7 C13.73 7 7.46 7 1 7 C0.67 4.69 0.34 2.38 0 0 Z " fill="#4C6C6B" transform="translate(41,136)"/>
<path d="M0 0 C1.98 0 3.96 0 6 0 C5.67 0.66 5.34 1.32 5 2 C4.34 1.67 3.68 1.34 3 1 C2.87882812 1.84304687 2.75765625 2.68609375 2.6328125 3.5546875 C2.46523438 4.65039062 2.29765625 5.74609375 2.125 6.875 C1.96257813 7.96554688 1.80015625 9.05609375 1.6328125 10.1796875 C1 13 1 13 -1 15 C-0.67 10.05 -0.34 5.1 0 0 Z " fill="#8BC4BA" transform="translate(43,106)"/>
<path d="M0 0 C2.31 0.33 4.62 0.66 7 1 C7.33 1.99 7.66 2.98 8 4 C9.98 4 11.96 4 14 4 C13.67 4.66 13.34 5.32 13 6 C8.8015641 6.34986966 7.22530013 5.60104849 4 3 C1.85266073 2.29485154 1.85266073 2.29485154 0 2 C0 1.34 0 0.68 0 0 Z " fill="#307294" transform="translate(109,98)"/>
<path d="M0 0 C5.2688172 7.90322581 5.2688172 7.90322581 4.6875 12.4375 C4.460625 12.953125 4.23375 13.46875 4 14 C3.67 12.68 3.34 11.36 3 10 C2.34 10 1.68 10 1 10 C0.67 6.7 0.34 3.4 0 0 Z " fill="#2C719C" transform="translate(145,40)"/>
<path d="M0 0 C0.99 0.33 1.98 0.66 3 1 C4.1875 4.0625 4.1875 4.0625 5 7 C4.01 6.34 3.02 5.68 2 5 C1.34 6.65 0.68 8.3 0 10 C-0.66 10 -1.32 10 -2 10 C-1.34 6.7 -0.68 3.4 0 0 Z " fill="#2299E1" transform="translate(140,38)"/>
<path d="M0 0 C2.14201526 3.21302289 2.65325876 4.26709281 2 8 C-0.5 9.8125 -0.5 9.8125 -3 11 C-2.01 7.37 -1.02 3.74 0 0 Z " fill="#2A7CAD" transform="translate(138,121)"/>
<path d="M0 0 C2.64 0 5.28 0 8 0 C6.35 1.65 4.7 3.3 3 5 C2.67 4.67 2.34 4.34 2 4 C1.34 4.66 0.68 5.32 0 6 C0 4.02 0 2.04 0 0 Z " fill="#8BC2BB" transform="translate(43,35)"/>
<path d="M0 0 C3.3 0 6.6 0 10 0 C10 1.65 10 3.3 10 5 C9.34 4.34 8.68 3.68 8 3 C5.31160615 2.73008094 2.70858064 2.91262643 0 3 C0 2.01 0 1.02 0 0 Z " fill="#3B7FAB" transform="translate(25,104)"/>
<path d="M0 0 C0.33 0.99 0.66 1.98 1 3 C-0.65 4.65 -2.3 6.3 -4 8 C-4.33 6.35 -4.66 4.7 -5 3 C-3.35 2.01 -1.7 1.02 0 0 Z " fill="#6C9891" transform="translate(129,126)"/>
<path d="M0 0 C2.64 0.33 5.28 0.66 8 1 C8.144375 1.78375 8.28875 2.5675 8.4375 3.375 C8.87798925 5.96421018 8.87798925 5.96421018 10 8 C6.28133515 6.76044505 4.67716114 4.81445146 2 2 C1.34 1.34 0.68 0.68 0 0 Z " fill="#216995" transform="translate(122,32)"/>
<path d="M0 0 C1.32 0.33 2.64 0.66 4 1 C4 3.64 4 6.28 4 9 C3.01 9.495 3.01 9.495 2 10 C1.855625 8.906875 1.71125 7.81375 1.5625 6.6875 C1.11711896 3.06877013 1.11711896 3.06877013 0 0 Z " fill="#3581AA" transform="translate(53,88)"/>
<path d="M0 0 C0.33 1.32 0.66 2.64 1 4 C1.66 4 2.32 4 3 4 C3.625 6.8125 3.625 6.8125 4 10 C3.01 11.485 3.01 11.485 2 13 C0.54815522 8.46298506 -0.23509196 4.81938524 0 0 Z " fill="#2699E2" transform="translate(145,46)"/>
<path d="M0 0 C2 1 2 1 2.6875 3 C2.790625 3.66 2.89375 4.32 3 5 C2.67 5.33 2.34 5.66 2 6 C2.66 6.66 3.32 7.32 4 8 C3.34 8.66 2.68 9.32 2 10 C0.68 8.02 -0.64 6.04 -2 4 C-1.34 4 -0.68 4 0 4 C0 3.34 0 2.68 0 2 C-0.66 1.67 -1.32 1.34 -2 1 C-1.34 0.67 -0.68 0.34 0 0 Z " fill="#76A89C" transform="translate(118,44)"/>
<path d="M0 0 C0.66 1.32 1.32 2.64 2 4 C-1.75 7 -1.75 7 -4 7 C-3.67 5.35 -3.34 3.7 -3 2 C-2.34 2 -1.68 2 -1 2 C-0.67 1.34 -0.34 0.68 0 0 Z " fill="#1C9DEF" transform="translate(142,127)"/>
<path d="M0 0 C3 1 3 1 4.25 2.8125 C5.11637742 5.33943414 4.88492145 6.52221994 4 9 C3.71125 8.360625 3.4225 7.72125 3.125 7.0625 C2.17176549 4.84793921 2.17176549 4.84793921 0 4 C0 2.68 0 1.36 0 0 Z " fill="#3687C0" transform="translate(140,34)"/>
<path d="M0 0 C1 2 1 2 0.44140625 3.9453125 C0.15136719 4.66460937 -0.13867188 5.38390625 -0.4375 6.125 C-0.72496094 6.84945312 -1.01242188 7.57390625 -1.30859375 8.3203125 C-1.53675781 8.87460938 -1.76492187 9.42890625 -2 10 C-2.33 10 -2.66 10 -3 10 C-3.36923077 3.47692308 -3.36923077 3.47692308 -1.5 1.0625 C-1.005 0.711875 -0.51 0.36125 0 0 Z " fill="#2C709E" transform="translate(148,126)"/>
<path d="M0 0 C2.31 0 4.62 0 7 0 C4.37801226 2.15377564 2.35595828 3.40072174 -1 4 C-0.67 2.68 -0.34 1.36 0 0 Z " fill="#3484B5" transform="translate(121,153)"/>
<path d="M0 0 C2.125 0.375 2.125 0.375 4 1 C1.44931155 3.35448165 0.28982642 3.98327924 -3.25 4.1875 C-4.1575 4.125625 -5.065 4.06375 -6 4 C-5.38125 3.71125 -4.7625 3.4225 -4.125 3.125 C-1.86674235 2.06279958 -1.86674235 2.06279958 0 0 Z " fill="#6D9995" transform="translate(113,138)"/>
<path d="M0 0 C0.66 0 1.32 0 2 0 C2.33 1.32 2.66 2.64 3 4 C1.35 4.66 -0.3 5.32 -2 6 C-1.125 1.125 -1.125 1.125 0 0 Z " fill="#2D9DE5" transform="translate(136,131)"/>
<path d="M0 0 C-0.99 0.33 -1.98 0.66 -3 1 C-3 1.66 -3 2.32 -3 3 C-4.65 3 -6.3 3 -8 3 C-8 2.34 -8 1.68 -8 1 C-2.25 -1.125 -2.25 -1.125 0 0 Z " fill="#3476A0" transform="translate(121,146)"/>
<path d="M0 0 C0.66 0.99 1.32 1.98 2 3 C-0.375 4.5625 -0.375 4.5625 -3 6 C-3.66 5.67 -4.32 5.34 -5 5 C-3.35 3.35 -1.7 1.7 0 0 Z " fill="#6F938E" transform="translate(119,124)"/>
<path d="M0 0 C0.33 0 0.66 0 1 0 C0.67 3.3 0.34 6.6 0 10 C-0.66 10 -1.32 10 -2 10 C-2.22036864 6.14354879 -1.60355101 3.50776784 0 0 Z " fill="#89C0B8" transform="translate(131,114)"/>
</svg>
